<svg xmlns="http://www.w3.org/2000/svg" width="1000" height="813" fill="#7c7c7c" stroke="#fff" stroke-linecap="round" stroke-linejoin="round" stroke-width="2" baseprofile="tiny" version="1.2" viewbox="0 0 1000 813"><path id="NGA2839" d="M922.5 251.5l-4.9 0.3-12.1 2.6-2.7-0.3-2.7-1-0.9-0.8-1.2-0.2-2.8 0.4-0.7 4.8 0 5.8-1.1 5.9-4.6 11.4-2.9 11.3-4.2 2.3-5.7-1.2-4.9-3.2-4.6-4.1-5.6-2.5-7.2-1-6.8 1.6-4.5 5.3-4.9 4.4-3.1 0.2-2.1 1.6-1.5 3-2.3 2.6-6 2.7-6.7 0.7-6 1.3-4.8 4.1-8.6 11.2-10.6 7.5-13.4-0.7-5.9-3.8-5.6-9.1-3.1-2-3.6-1.4-3.1-2.2-2.6-3.2-1.8-3.7 0.2-3.7 6.2-10.1-1.1-7.3 3.3-0.9 2.5-2.1 2-2.5 0.9-3-0.6-7.1 1.2-6.8 4.7-5.2 19.6-6.9 5.2-3.9 2.5-5.8-0.4-7.2 0.4-7.2 1.8-2.7 2.3-2.4 3.4-6.2 8.4-10.5-0.4-3.1-1.5-3-2.4-2.8-3.4-1.1-2.8 0.4-2.2-0.7 0.5-3.4 5-9.9 0.4-3.8-2-8.5 3.9-28.6-1.7-12.8 9.1-8.7 3.7-5.1 2.1-5.2-0.7-5.3-4.5-3.3-3.7-4.1-1.5-5.5 2-16.5 2.3 0.1 1.9 0.3 1.6 0.6 1.3 0.3 1.2-0.6 0.4-1 0.7-4.6 0.4-0.3 2.5-0.5 1.1-1.7 0.5-1.9-1.3-0.5 0.6-1.2 1-1.6 0.3-1.4 3-2.9 1.3 0 1.2-1 0.2-1.9 2.4 2 1.3 0.3 0.7-0.5 0.6-1.9 1-0.5 1.9-0.4 1.3-1.1 2.2-2.6 0.9-1.8 1.1 1.3 1.2-0.1-0.9-2 0.2-0.3 1.7-0.7 1.1-0.2-0.1-0.9 2.3-2.6 1.1-0.9-1-1.2-1.3-0.5 0-0.7 2.3 0.9 0.8-0.1 0.3-1.4 2.4 0.5 2.3-0.4 7.4-3.8 2.2-0.8 2.3-0.1-0.5 1.3 0.9 0.4 1.6-0.1 1.4-0.5 0.6 0.6 0.6-1.4 0.5-0.3 0.8 0.1 0.2 0.7-0.5 1.5 2.2-1 2.3-0.4 2-0.7 1.5-2-1.2-0.2-0.2-0.4 0.8-1.2 1.5-0.2 0.2-0.7-0.5-1.1 0.5-1.2 0.5-0.7 3.4-3.2 1.2-0.9 0-1.4 0.7-0.7 2.5-0.4 20.6 0.9 19 26.8 19.1 26.8 9.3 45.4 0.1 6.6 0.6 1.8 0 1.7-0.5 2.6 0 1 0.8 1.3 1.1 0.6 1.3 0.3 17.1 0.5 5.3 1.4 2.3 1.2 0.2 0.8-0.4 1.3 0.2 0.8 0.6 0.6 2.4 1.8 0.9 0.4 0 0.7-1.1 0.5 1.6 1.2 1.7 0.9 1.3 1.1 0.6 1.8 0.4 0.4 3-1.3 1 0.5 0.5 1.8-1.6 1.6-1.1 2-1.5 6.1 0.2 0.9-1.5 1 0.2 1.7 1.6 3.6 0.1 1.6-0.3 2.8-0.9 2.7-1.8 8.7-0.6 1.4-3.1 4.1-0.4 0.7 0.2 0.7 0.7 1.1 1.8 0.1 0.6 0.4 1.1 1.7 1.3 1.4 1 1.4 0.4 1.7 0.1 2.2-0.3 1.7-0.7 2.1-0.8 2.1-1 1.5-1.5 0.8-4.3 1.6-1.7 1-3.1 2.8-1.7 1-4.9 1.6-1.6 0.9-7.4 6.9-0.7 0.2-2.2 0.3-1 0.4-2.3 2.4-1.5 1.1-1.8 1-1.8 0.4-1.7-0.2-5.9-2.5-3.2-1-2.6 0-3.2 2.6-3.1 3.2-2.8 3.5-2 3.6-1.4 3.4-1 1.3-3.2 1.8-1.3 1.2-0.9 1.5-0.4 1.7 0.6 3.2-0.6 1.4z" name="Borno"/><path id="NGA2841" d="M405.4 669.8l0.1 4.9-0.7 5.4 4.9 2.5 12.1 0.1 4.5 2.1 0.6 2.9 1.4 2.6 2.7 2.1 3 1.1 1.4 3.8-0.7 4.7 1.9 8.8 4 7.7-1 2.9-4-0.7-4.3-3.4-4.7-2.6-2.8-4.4-4.1-2.9-3.2-0.5-2.2 1.6 0.5 5.7-2 4.6-0.1 1.1 2 0.6 0.9 1.6-0.5 1.6-2.4 1.6-4.3-0.6-3.7 1-0.1 1.7 0.8 1.5 0.2 1.6-1.2 5.3-0.3 3.6 0.5 3.9-0.5 3.7-2.7 2.7-1.9 3 1.1 4.1-0.5 1.5-0.2 1.4 1.8 3.3 0.6 3.5-5.6-3.8-4.4-0.1-3.1-1.3-3.3 0.1-6.8 1.4-3.4-1-1.1-6.5 8.6-13.2 0.4-4.1-1.7-3.1 6.1-17.6 3.2-3.5 1-2.1 0.7-2.2 1.2-1.7 0.6-2 0-2.3-0.4-2.3 0-2.3-0.6-2.1-0.9-1.6 0.7-1.2 0.9-3.8-1.1-9.4-3.2-2.9-2.3-0.5-4.2-2.1-1.8-1.6 3.9-4.9 5.6-3 0.7 0.7 4-0.6 4-0.2 5.4 4.1z" name="Abia"/><path id="NGA2842" d="M435.6 720.7l-2.3 2.6 1.4 3.6 0.9 1.5 1.7 1.3 4.9-0.8 2.1 0.5 3.7 2.4 1.4 1.6-0.6 10.2 1.1 4.6 2.3 4.2 3 4.2 9.7 10.2 3.2 2.4 1 0.2 0.5 0.4 1.2 3.6 1 1.4-0.9 2.4-0.1 0.8 0.3 1.1 1.8 0.8 0.7 0.6 0.3 2-1.3 1.2-1.7 0.9-0.7 1.4-1.2 2.5-1.6 0.6-3.6 0-4.7-0.6-7.2 0-3.4-0.5-1.6 0.1-2.8 1.4-1.6 0.2-3.7 0-14.2 1.7-0.8-0.5-1-0.1-1 0.3-0.6 0.9 1.6 0 1.2 0.6-1.8 0.4-2.7 0.2-2.4-0.4-1.1-1.1-1.2-0.3-7.3-0.5 0.6-0.9-0.6-0.6-1.6 0.1-0.2-1 0.3-0.5 1.1-0.8 0.4-0.9-1.8-2.3 0.6-1.2-1.2-1.4 0.3-2.1 1.5-3.9-0.6 0-0.9 0.6 0.1-2-0.7-3.1-1.5-2.3-1-2.1-0.6-3.5-1.8-3.3 0.2-1.4 0.5-1.5-1.1-4.1 1.9-3 2.7-2.7 0.5-3.7-0.5-3.9 0.3-3.6 1.2-5.3-0.2-1.6-0.8-1.5 0.1-1.7 3.7-1 4.3 0.6 2.4-1.6 0.5-1.6-0.9-1.6-2-0.6 0.1-1.1 2-4.6-0.5-5.7 2.2-1.6 3.2 0.5 4.1 2.9 2.8 4.4 4.7 2.6 4.3 3.4z" name="Akwa Ibom"/><path id="NGA2843" d="M381.9 734.9l-2.4 0.7-2.7 0.4-4.4-1.3-10.4 1-11.8-0.8-8.7-5.7-0.6-1.1-2-1.5-0.8-0.9-0.1-2.9 1.2-2.7 0.7-5.9-3.4-3.6-3.1 0.7-2.9-0.2-0.6-1.9 2.6-13.1 1-2.9 5.5-4.5 6.5-1.8 3.6 1.5 3.3-0.9 3.2-6.7 1.1-3.6 3.2-1.9 3.7-0.9 3.8-0.4 7.6 1.6 3.4-1.1 3.4-0.8 1.8 1.6 4.2 2.1 2.3 0.5 3.2 2.9 1.1 9.4-0.9 3.8-0.7 1.2 0.9 1.6 0.6 2.1 0 2.3 0.4 2.3 0 2.3-0.6 2-1.2 1.7-0.7 2.2-1 2.1-3.2 3.5-6.1 17.6z" name="Imo"/><path id="NGA2844" d="M398.6 795l1.5 0.4 1.5-0.2 3-0.8 4.2-0.4 0.8 0.3-0.4 1.1-0.8 1-1.4 0.3-3.2-0.1-1.3 0.2-4.1 1.5-1.5 0.1-6.1-0.4-1.3-0.6-0.5-1.1 0.8-1.5 0.9-0.4 4-1.3 1 0.4 2.9 1.5z m-16.1-1.8l1.3 0.5 3.8-0.4 1.1 0.4-1 0.9-0.5 1-0.2 2.4-0.4 1.3-0.8 0.8-2.3 1.2-7.4 1.5-2.8-0.2-0.8-1 0.8-1.6 2.7-2.8 1.8-2.9 1.6-1.9 0.7-2.2 1.2 0.7 1.2 2.3z m-0.6-58.3l1.7 3.1-0.4 4.1-8.6 13.2 1.1 6.5 3.4 1 6.8-1.4 3.3-0.1 3.1 1.3 4.4 0.1 5.6 3.8 1 2.1 1.5 2.3 0.7 3.1-0.1 2-1.1 1.1-0.2 0.9 0.4 2.1 0 0.8-0.7 1 0 0.6 1.1 1.3 0.3 0.7-1.7 1.8-1.7 1.1-0.9 0.1-0.8-0.7-0.6 0-0.7 1.7-1.8-0.2-2.9-1.5-2.1-0.1-2.1-0.4-1.9-0.9-1-1.4-1.1 0.5-1.5 0-0.7 1.5-0.7 0.3 0 0.5 1.1 0.6-0.5 0.6 1 0.3 1.5 1.2 2.2 0.5 0.4 0.5-0.6 1.5-3.7 0.6-2.3-3.2-5.2-5.7-0.8-1.8 0-2.2-0.2-0.8-0.5 0-1.2 0.5-1.8 0.1-2.5-2.1-0.6-0.9-1.4-3.8-1-0.5-1.1 1.5 0.2 0.8 1 0.3 0.6 0.6 0.8 2.8 0.8 1.3 1.5 0.5 2.6 1.3 1.8 2.8 0.3 2.8-2.1 1.1 1.1 0.7 1.2 1.2 0.8 1.5-0.6 1.5-2.2 2.5-1.5 0.7-1.7-0.7 0 1.7-1.5-0.7-1.2-1-0.5-1.2 0.4-1.6-1.1 1-0.3 1.4 0.5 1.4 0.9 1.3-2.3 0.6-0.6 0-1-2-0.5-2.1-0.2-4.2-1.4-2.3-0.4-1.4 0.9-0.6 0.8-2.3 0.3-1.7-0.2-1.2 1.7 0.6-0.6-1-1.6-1.8-0.8-2.8-0.4-0.7-1.5 2.1-0.6 0-0.3-1.3-1-1.9-0.4 1.3 0.2 2-0.4 0.6 1 1.4 1.8 5-1.4-0.1-0.8-1.1-1.1 0.6-0.8-1.6-0.8-1.4-2.4-2.8 0.1 1.4 0.4 1.1 1.2 2.1 1 1.4-0.2 1.4-0.8 0.9 0.6 0.9 0.8-1.3 1.6-0.4 1.4 0.4 0.7 1.1-0.8 5.7 0.2 2 2.9 5.8 1.1 1.4-0.6 1.6-0.8 0.3-1.1-0.1-2.5-1.1 0.5 1.2-1.8-0.5-1.9-0.9-1.8-0.4-2 0.7-0.9-1-0.7-1.3-0.1-1.5 0.6-1.4-1.4-0.8-1.3-2.1-0.9-2.7-0.4-2.1 0.2-1.5 0.4-0.8 1.2-1.4 0.7-2.2-0.2-1.3-1.4-0.5-2.1-1.2-1.5-2.8-1.3-5.2-0.2-2 0.2-1.1 1.5-2.2-0.2-0.7-0.8-0.1-1 1-0.8-1-0.4-1.4-1.4 0.5-1.4-0.5 0.3 1.5 0.2 1.5 0.4 1.2 1.1 0.5 0.7 0.6 0.6 1.5 0.7 3 0.3 3.1 0.4 1.5 1.8 1.1 1.1 1.3 1.5 2.7-1.9 1.6-0.4 0.7-0.1 1.2 1.6 8.2 0.9 2.5 1.1 1.3-0.2 1.9 1.7 1.5 1.1 1.2-2.1 1.1-2.6 0.5-3.3 0.2-3.1-0.3-1.8-1-0.3-1.2 0.3-4.9 0.5-1-1.1-1.4 0-2.9 0.3-1.4 1.9-5 0.2-0.9-0.1-2.4-1.1 1.3-1-1.3-2.7-1.2-2.3-1.8-1.3-2.8-0.7-3-5.1-3.2-6.9 2.6-2.6 0.2-0.9-2.5 0.4-1.6-0.7-1-1.2-0.1-1.2-0.6-1.9-2.5 0.1-3.4 0.9-2.9 1.7-2.5 0.2-1.2 0.8-1.8 1.5-1.6-1.1-1.6-0.6-1.9 0-1.7 0.4-2.1 0.5-1.7 0.5-0.8 1.5-0.7 0.7-1.8 0.4-3.8 1.2-2.7 1.8-1.7 2-1.5 2.8-3.5 1.1-2.3 1.6-0.3 1.3-1.3 0.2-1-0.4-0.8-2.4-2.8-7.7-0.7-1.5-3.7 1.7-1.8 2-0.9 1.6-1.7 1-2 0.7-4.1 1.7-3.8 2.1-9.7 2.5 2.3 2.8 0.2-1 2.9-2.6 13.1 0.6 1.9 2.9 0.2 3.1-0.7 3.4 3.6-0.7 5.9-1.2 2.7 0.1 2.9 0.8 0.9 2 1.5 0.6 1.1 8.7 5.7 11.8 0.8 10.4-1 4.4 1.3 2.7-0.4 2.4-0.7z" name="Rivers"/><path id="NGA2845" d="M338 785.3l-0.5 0.6-1.3 3.5-0.5 3.8 0.5 2.8-0.3 0.7-0.2 2.7-0.8-1.9-0.3-1.1-0.2-5.1-0.4-1.1-0.7 1.1-1.1 0.7 0.5 1.2 0.1 3.9 0.3 1.3 1 1.8 0.7 1.7 0.8 2.8 0.1 1-0.7 0.9-0.8 0.3-2.6 0-2.3 0.2-0.5-0.5-0.9-2.7-0.2-2.6 0.1-3.8-0.4-3-1.2-2.2-2.6 0.3 2.4 1.8 0.8 2.9-0.3 3.4-1.1 3.3-0.2 2.8-4.1 0.9-4.8-0.4-2.3-1.6-2.2 0.6 0.6 1.5-1.4 0.5-2.1 0.2-1.5 0.4-1.6 0.7-3.8 0.1-1.7 0.6-1.9-2.3 1.7-3.6 5.4-6.1-2.3-0.3-0.6 0.3-2.9 3.4-0.4-4.5-1.3-4.1-0.5 0-0.1 1.7 0.2 2.1 0.3 2.1-0.8-0.2-1-0.8-1.5-0.3 0.9 1.9 0.9 1.3 0.6 1.4-0.1 2.2-0.6 1.7-0.6 1.2-1.7 1.1 0.1 1.2 1.1-0.4 1.2 0.4-0.5 0.8-2.4 0.8-3 0.1-2.1-0.5-1.2 1.1-1.3-0.5-0.8-0.8-0.2-1.2 0-1.5 0.4-1.4 1.1-2 0.2-1.2-1.7 0.6 0-1.3 0.3-2.3-1.7-0.3-1-0.4-1.1 0.3-0.2 0.8 0.2 1.3 0.7 1.9-0.4 1.1 1.1 1.9 0.4 1.3-0.2 1.8-0.7-0.1-0.9-0.9-1.3-0.5-1.8-0.1-0.7-0.4-0.1-3 0.6-0.4-1.2-1.9 0-2.8-0.5 0-0.6 2.8-1.7-1.1 1.2 2.8 0.3 1.4-1 1-1.2-0.2-1.3-0.8-1.7-1.4-1.7-0.6-1.9-1.5-1-2 0.9-2.1-0.9-0.1-0.9 0.9-0.4 0.9-1.4-1.4-3.4-1.9-0.4-1 1.7 0.9-0.6-1.1-1-0.5-2.4-0.7-1.7-2-0.7-0.8-2.2-2.3-0.5-0.4-7.8-7.2-2.3-3.3-0.8-3.5 1.2 0.6 0-1.6-3.6-2.2-1-1.7-0.4-1.3-2.1-3.6 1.9 0.7-0.7-2-2.6-3-2.3-6.5-0.8-3.9-0.4-1.3-1.1-2.2-0.4-1.2-0.5-2.1-1.1-1.5-0.3-1.3 0.4-1 1-0.4 1.3 0.1 1.3 0.4 0.9 0.8 1.5 2.1 1 0.6-1.3-3.3 2.3 1.9 3.2 2.1 3.8 1.3 4.2 2.3 1.6 1.2 2 0.3 1.5-0.2 1.3 0.1 3-1.6 2.8-2 1.6-0.5 1.5-0.7 1.6-0.5 1.5 0.3 2.6-0.5 2.3-1.2 2.7-3.9 1.1-0.5 2.8 2.5 1.8 1 1.7 0.8 2.2 0.3 1.4-0.8 2.4-3.3 0.7-0.3 3 0.6 1.1-0.2 1.7-1.5 2.1-0.6 0.9-0.5 0.4-0.9-0.1-0.7-0.8-1.3-0.2-0.9 0.7-2 1.5-0.6 3.5 0.1 1.5-0.4 0.2-0.5 0.2-2.2 0.4-0.8 1.4-1.5 1.6-1.2 1.3-0.4 10.8-1.7 1.3-0.7-0.1-1.8 7.7 0.7 2.4 2.8 0.4 0.8-0.2 1-1.3 1.3-1.6 0.3-1.1 2.3-2.8 3.5-2 1.5-1.8 1.7-1.2 2.7-0.4 3.8-0.7 1.8-1.5 0.7-0.5 0.8-0.5 1.7-0.4 2.1 0 1.7 0.6 1.9 1.1 1.6-1.5 1.6-0.8 1.8-0.2 1.2-1.7 2.5-0.9 2.9-0.1 3.4 1.9 2.5 1.2 0.6 1.2 0.1 0.7 1-0.4 1.6 0.9 2.5 2.6-0.2 6.9-2.6 5.1 3.2 0.7 3 1.3 2.8 2.3 1.8 2.7 1.2 1 1.3z" name="Bayelsa"/><path id="NGA2846" d="M541.5 507l-4.6 6.9 1 1.8 2.6-0.5 5.6-2.6 3.3-0.6 12.8-0.4 12.7 1.5 9.4 6.5 7.5 9.4 8.5 7.6 3.7 9.7-3.3 10.1-0.6 9.9-3.6 3.4-4.2 3-3.4 4.2-2.5 4.9-2.7 14.6 0.3 5.3-1 14.1-2 8.1-1 0-2.5 0.5-1.2 1.1-1.9 3.7-1.4 1.3-1.7 0.8-3.3 1.3-1.6-2.7-2.4-4.4-9.9-11.7-7.4-3.8-13.1 2.5-4.7 0.1-2.3-0.5-1.6-1.4 0.8-5-2-4.3-10-5.9-6-2.1-5.7-0.5-5.4 2-1.1 2.7 0.8 3.2-1.4 2.4-2.8 1.5-3.5 0.9-3.7 0.1-3.3-0.6-3.3 0-2.4 1.8-2.3 2.5-2.5 1.3-2.7 0.3-1.9-2.2-1.1-2.8-0.6-3.2-0.9-1.4-1.7-0.1-0.4 0.9-0.9 1.3-1.9 0-1.9 0.4-3.1 4.1-3.2 0.8-3.3 0-3.5 0.5-1.3 2.8-0.8 7-3.7 5-5.7-3.5-2.7-5.8 2.8-7.8 0-4.1-0.9-4-2.1-3.4-3.4-1.7-3 0.8-2.5 1.9-3.3 0.4-3.2-1.5-3.1-2.3-2.8-2.6-2.3-2.9-3.2-6.7-0.8-3.4 3.2 1.6 3.5 2.9 2.7 1.3 2.2-0.7 0.3-3.8 1.3-3.3 11.1-6.1 3.4-5.7 1.5-6.8 0.2-2.7 1-2.4 1.7-2.9-2.1-1.5-3.2 0.4-2.7-1.4-1-3.3-1.3-10.1 0.2-9.7-0.3-3-1.7-3-2.4-2.5-2.5-3.6-1-4.3-0.2-4.4 0.4-4.8 4.2 1 5.4 0.6 4 1.4 2.8 0.6 5.9 0.7 2.9 0.8 4.1 2.5 1.4 0.5 7 1.2 2.3 0.9 4.5 2.3 2.6 0.8 2.7 0.3 2.4 0.7 1.9 2 3.8 2.2 2.1 1.6 1 0.5 1.6 0.4 1.1-1.3-0.6-3-3.9-8.6-1.9-6.1 1.3-5.9 4.7-3.9 10.9-1.3 16.8 5.6 6.1 1.4 9.1 0.3 3-0.3 0-0.4 15.9 11.8z" name="Benue"/><path id="NGA2847" d="M568 632.6l-0.5 0.1-2.4 1.6-2.5 4.9-2.4 1.4-3.3 0.1-1.2 0.6-1.1 1.3-2.4 5-2.1 3-11.4 9.2-7.7 8-1.7 2.6-1.1 1.2-1.3 0.7-0.5 0.5-0.2 2.4-0.3 1.1-1.4 0.2-1.8-0.7-1.8-0.2-1.4 1.3-1.2 1.5-2.9 1.9-0.9 1.4 0.2 1.7 0.9 1.3 0.7 1.5-0.4 2.1-1.4 1.8-1.5 1.1-0.7 1.2 1.1 2.1 1.7 1.6 1.9 1.5 1.5 1.6 0.9 2.3-0.4 2-1.2 1.6-1.6 1.5-1.3 1.6-0.5 1.8 0.4 3.3 0.1 1.8-0.6 1.8-1.8 3.6-0.5 2 0.1 1.1 0.7 2 0.1 0.9-2.2 11.4-0.6 1-2.8 1-0.9 0.9-1.6 2.5-0.5 1.1-1.2 3.7-0.8 1.6-1.2 1.8-3.3 5.2-0.5 1.5-2.3 1.6-0.7 1.3 0.3 1.8 0.5 2.4-1.4 1.3-0.8-0.8-0.7-0.1-0.7 0.3-1.6 1.6-1.2 3-0.2 1.6 0.5 1.3 0 0.7-0.7 1.3-1 0.4-2.3-0.5-1.2 0.1-0.6-0.2 1.1-2.2 0.2-0.9-1.1-0.1-1.6 0.8-1.1 0.2-2.5-0.9-0.1-2.3 0.8-3 0.4-2.9-0.5 0-0.6 2.8-1.8 1.5-2.4-0.2-2.2-1.9 0.7-1.2-0.7-0.1-1.6-0.9 0.3-1.2-0.6-0.9-2.3-1.7-2.1-1.2-0.5-1.4-0.9-1.8-0.6-0.7-1.9-0.7-1-0.9-1.3-1.6-0.5 0.5 4.6 4.4 1.1 1.4 2.1 4 0.4 1.9-1.4 0.9 1.4 2.5 0.9 1.1 1.2 0.8-1-0.2-3.2-2.4-9.7-10.2-3-4.2-2.3-4.2-1.1-4.6 0.6-10.2-1.4-1.6-3.7-2.4-2.1-0.5-4.9 0.8-1.7-1.3-0.9-1.5-1.4-3.6 2.3-2.6 4 0.7 1-2.9-4-7.7-1.9-8.8 0.7-4.7-1.4-3.8 0.3-2.1 0.8-2 1.3-1.5 1.1-1.7-0.3-1.9 0.1-2 1.2-1.1 2.9-4.6 1.1-3.7-1.4-2.6 1-2.1 3.4-1.1 3.1 0.9 1.6 3.8 2.1-0.1 1.6-1.5 3.8-1.8 1.3-1.6 1.1-1.8 2.2 0 2.4 1.1 1.4-2.2 1.5-6.3 1.6-2.5 1.9-2.5 4.7-4.7 0.7-5.7-1.6-2.5 0.6-2.8 5.2-2.9-0.3-2.7-1.7-2.2-0.9-2.3-0.4-2.6-1.4-1.6-0.3-0.9-0.6-0.8-2.2-1.6-3.2-3.7-1.2-4.6 2.7-0.3 2.5-1.3 2.3-2.5 2.4-1.8 3.3 0 3.3 0.6 3.7-0.1 3.5-0.9 2.8-1.5 1.4-2.4-0.8-3.2 1.1-2.7 5.4-2 5.7 0.5 6 2.1 10 5.9 2 4.3-0.8 5 1.6 1.4 2.3 0.5 4.7-0.1 13.1-2.5 7.4 3.8 9.9 11.7 2.4 4.4 1.6 2.7z" name="Cross River"/><path id="NGA2848" d="M699.4 366.2l8.9 0.7 29.2-1.2 7.7 14.5 2 1.9 2.8 0.5 2.8 0.9 4.8 4.3 2.8 6.1 1.6 2.5 0.8 2.6-0.4 2.9 0 3 2.9 4.9 5.3 2.5 3.4 4.3 0.5 5.9-8.3 17.4-0.6 5.8 0.4 3.1-0.8 2.7-5.6 4.6-21.5 25.9-5.4 4.9-4.6 5.4-0.7 2.6 3.6 9 3.3 6 2.3 2.3 2.7 0.3 2.2-1.9 1.8-2.3 1.7-2.5 2.6-1.2 3 1.3 2 2.5 8.1 7.7 4 9.6 0 5.7 1 5.5 2.1 4.5 1.1 4.3-4.9 4.8-5.2 7.7-1.6 1.6-1.5 1.2-0.7 0.7 0.5 0.5 2 0.4 1.1 1 4.2 6 3.2 3.5 1 2.1-0.7 1.9-0.8 0.4-1.5-0.6-0.9-0.1-1.1 0.4-1 0.6-3.5 3.2-1.3 0.8-0.3 1.5-0.5 0.7-2.8 0.5-0.9-0.1-0.7 0.5-0.6 1.5-4.8 3.1-5.1 4.7-1.5 2.1-0.5 2.3 0.5 1.2 1.9 2.1 0.4 1.5-0.2 2.3-0.6 2.2-2.4 5.6-2 2.8-2.2 1.3-3.3 0.3-2.2 1.8-1.2 2.8-0.6 3.5-0.5 1.9-1.6 1.5-2.1 1.1-2.1 0.5-0.9-0.1-2.7-0.5-1.2 1-1.1 0.1-1.4-0.8-7.6 0.8-2.2-0.3-1.4-1.2-1.6-4-1.4-6.5-0.3-3.3 0.2-3.3-0.3-4-1.6-3.4-2.8-2.2-7.8-1.4-2.7-2.7-1.6-3.7-0.8-3.8-1.3-3.3-2.8-1.9-6.8-2.6-5.8-3.1-2.2-0.7-1.5-1.2-0.5-4.1-1.5-2-1.2 2.4-1 3-0.7 3.2-0.5 6.4-1.4 0.8-1.7 2.5-0.3 1.3-0.1 1.9-21.4 0.3-2.3-0.7-1.7-1.3-0.9-1.7-1.2-6.1-0.7-1.4-1.2-0.3-1.9 1.2-20.4 17.3-1.9 0.8-1.6-0.5-1.7-0.8-1.9-0.1-1.6 1.8-6.4 20.3-1 0.8-3 0 2-8.1 1-14.1-0.3-5.3 2.7-14.6 2.5-4.9 3.4-4.2 4.2-3 3.6-3.4 0.6-9.9 3.3-10.1-3.7-9.7-8.5-7.6-7.5-9.4-9.4-6.5-12.7-1.5-12.8 0.4-3.3 0.6-5.6 2.6-2.6 0.5-1-1.8 4.6-6.9 2.8-2.4 12.1-8.1 1.7-1.5-0.3-2.3-0.6-1.5 0.2-1.5-0.3-4.3-4.4-5.6 0.3-2.6 0.9-2.2 1.4-1.8 2-0.9 4.1 1.4 2 1 2.3 0.4 2.5 0.8 2.4 0.3 2.3-0.1 3.4-2.2 2.3-3.6 4.5 0.3 6.3-0.5 6-1.7 5.4-4.1 4.8-4.9 5.5-4 5.9-3.2 2.3-2.1 4.4-5.3 1.9-3 4-4.8 19.2-4.7 13.2-6.6 2.9-5.4-0.1-3.2-1.1-5.2 0.6-2.7 0-2.4-2.4-8-1.4-2.3-0.7-2.5-0.9-6.3 0.6-5.4-0.5-4.5-1.8-4 4.4-2.9 10.6-0.3 10.2-4.9 5.5-0.9 5.8 1.4 5.7 0z" name="Taraba"/><path id="NGA2849" d="M295.8 438.4l-3.5 4.6-3.4 11.6-1.3 8.7-0.8 2.5-1.7 2-2.8 0.6-9.2-2.1-11.5-0.6-8.2-1.9-8.3-3.1-4.2-4.2-3.3-1.3-3.7 3.4-9.5 11.9-0.7 2.8 2.5 4.8 1.2 1.5 1.5 1.2 0.8 1.6 3.4 3.1 5.5 3.4 0.7 5.1-9 0.3-2.9 0.9-1.8 2.1-0.5 2.7-1 2-1.4 0-3.5 0.6-2.1-0.5-3.3-0.2-5.5-3.5-5.2 1.6-1.7-0.7-0.4-1.5-1-0.6-1.2-0.2-4.8 0.6-2.5-1.6-1.7-2.9-3.5-0.1-3.3 1.3-5.4 0.5-2.3 0.5-2.1 0.9-4.7 1-5.4-0.5-5.4 0.3-1.4-0.9-1.4-0.3-1-1.7-2.4-8-3-4.9-2.2-1.4-1.9-1.7-3-4.4-2.9-11.3-2.9-4.5-7.4-16.4-1.1-5.1 1.1-5.1 1.8-1.8 1.4-2.2 2-2.1 2.8-1.6 2.8-4.1-1.4-3.2-4.1 2.5-2.3 0-6.1-1.4-9.8-3.5-3.7-1.9-3.2-2.8-1.9-3.7-2.4-3.1-3.8-1.7-4 0.4-3.7 2.7-2.1 4.1-0.8 5.5-1.6 1.8-1.9 1.4-17.1 8.6-3.6 2.7-3.4 1.7-3.7 2.8-9.8 4.5-1.1 0.2-0.9-1-1-0.5-0.6-0.9-1.4-0.3-1.3 0.1-1.9 0.6-1.8 1.1-3.4 3-1.7 1-1.3 1.1-0.6 0.8-1.9 0.8-4.6 3.7-1.5 1.9-2 1.3-6.6 1.5-3.2-0.1-4.9 4.2-1.6-20.6 0-0.9 0.5-0.6 1.4-0.6 0.5-1.2-0.5-2.1 0.3-1.3 1-2.4 0.1-1.3-0.4-0.6-0.7-0.3 0-0.8 1.2-2 0.5-2.3 0.2-5.3-0.3-2.3 6.4 0.6 1.1-0.2 1.5-1.3 0.9-0.6 0.9-0.2 2.6-0.1 0.9 0.1 2.5 1.4 1 0 5.7-1.4 2-1.5 1.3-2.6 2.8-8.7 1.7-3.2 0.5-1.8 0-5.5-0.3-1.4-1-2.6-0.6-2.4 0.3-2.3 1.6-2.6 0.6-0.5 1.4-0.4 0.6-0.6 5.1-6.7 0.1-0.4-0.6-1.6 0.6-2.1 1.4-0.4 1.6 0.3 1.5 0.1 2.7-1.6 0.6-2.2-0.7-2.5-1-2.6-0.3-1.7 0.2-1.9 0.7-1.7 1.4-1 5.9-2.5 3.3-0.8 5 0.5 1.5-1.4 2.1-4 2.7-3.2 0.9-1.7 0.5-7.2 0.5-1.4 1.3-1.2 1.2-0.6 1.1-0.8 0.8-2.3 7.7-1.5 13.3-0.4 5.7 0.8 2.4 2 27.9 33.2 1.3 1 1.3 0.8 2.9 0 1.3 5.7-0.8 6.8-0.1 6.3 2.7 4.7 6.1-0.8 7.3 1.1 0.1 0.5 0.5 6.3 0.3 1.4 0.7 1.1 1.2 1 1.4 0.5 4.1 0.7 2.4 0.9 1 1.7 0.1 2.2-0.5 2.5 0.2 2.6 1.5 1.6 2.3 0.8 2.6-0.2 3.3-1 3.7-2.2 5.4-1.7 1.2 0 1.1 0.3 2 0.9 0.1 0.5 1.5 0.7 2.8 1.9 4.3 2.1 1.3 0.9 1.4 1.9 1.4 1.5 0.4 0.9 0.1 2.7 0.6 1.1 1 0.7 1.2 0.4 7.9 1.3 5.6-0.3 1.2 0.2 1.9 1.3 1.5 1.5 1 0.8 2.2 0.7 2.5 0.2 2.3 0.6 1.6 1 1.1 1.5 1.8 1.5 1.4 1.7 1 1.9 1.1 0.9 1.3 0.4 4.8 0.1 3.2 1 1.1 1.7 1.2 1.7 0.9 1.5 0.5 0.6 1 0.3 4.4-0.1 3.7 0.6 1.2 0 1-0.2 2.7-1.2 2-0.4 9.1-0.1 1.3 0.2 1.2 0.5 2.6 2.4 0.6 0.2 4.6-0.9z" name="Kwara"/><path id="NGA2850" d="M139.9 636.5l-17.9-3.3-21.3-1.8-35.5 1.8-1.9-0.3-1-0.7-0.8-1-1.2-0.9 1.4-0.5 0.9 0.5 1.3-1.1 0.5 0.4 0.5 2.5 2.9-2.7 0.8 0.8 1.7-0.4 1.6-0.1 1.4-0.2 1.3-0.7 1.2-1.3 0.1-0.9-0.1-1.7 0.8-0.3 3.4 0 1.8-0.3 3.6-1.2 1.2 0.3 1.8-0.7 1.7-1 1.2-1.3 0.4-1.8 1-0.4 7-1.1-1.2-0.7-1.1 0.2-4.7-1.2-4.7 1.8-4.5 2.6-4 1.3-2.4 0.2-2.9 1.5-1.9 0.6-1.1 0-1.3-0.5-1 0-0.8-0.7-0.4-2.1 0.6-1.8 0-1.2-1.4 0.9-1 0.8-1.8 2.1-2.3 0.4-0.3 0.7 0.5 1.8-0.3 1.7-1.1 1.8-0.6 1.6-0.9 1 1.6 2.5-0.4 1.9-4.9 0.5-9.3-0.4-10.9 1.2-12.9-0.6-18.6 1.7 0-5.1 0.6-3.7 3.3 0.3 2.8-0.3 2.2 0.7 2.1-0.1 2.2-1.5 1.6-1.8-0.1-1.2 0.9-0.5 18.2 0.8 4.9-0.6 1.2-1.4 0.9-4.1 1.2-1.7 1.3-1.4 1.2-4.3 0.5-1.2 2.6-1.1 2 0.6 3.8 2 1.9 2.5 3 0.1 1.6-0.3 1-1.4 0.2-1.2 0.8-0.8 48.6-0.2 4.9 1.3-0.9 2.2-2 1.6-0.7 2.1 0.8 2 0.1 1.1 2.4 1.9 2.5-1.3 2.5-1.7 2.7-0.6 2.4 0.9 0.9 1.7-0.8 1.8-4.8 2.6 0.2 2.1 1.9 1.2 2.3 0.6 1.2 1.1 1.4 0.9 1.9-0.5 4.8 0.2 2.3 0.8 0.1 2.2-0.4 2.5z" name="Lagos"/><path id="NGA2851" d="M280.1 237.1l3.5 4.7 6.4 10.8 1.3 5.6-1.7 0.8-1.6 1.9-0.7 2.1-0.5 7.1 0.1 2.1 1.4 4.3 0.1 2-0.4 1.9-1.2 2.9-0.2 1-0.2 3.4-0.5 1-0.3 1.7 0.5 2.9 2.7 2 2.1 2.5 1.4 2.9 2.9-0.4 2.1-2.4 1.8-2.8 4.3-4.7 9.9-7.7 5.9-1.3 2.2 1.5 1.1 2.6 2.6 0.5 6.1-2.8 3.1-0.6 3.2 0.5 1.9-1.3-0.4-3.4 2.7-1.1 3 0.2 2.6 1 0.7 1.7 0.5 6.8 1.4 0.4 2.9-0.9 4.6 3.9 0.1 6.8-1.1 3 1.8 1.9 5.9 2.2 2.5 1.7-0.2 2.9-2 2.6-2.7 1.8-2.7 2.2-2.2 2.7-2.8 1.8-2 2.3 3.8 4.9 5.9 2.6 6.2 0.7 12.3-0.2 4 2.8 1.6 13.5-0.1 3.1-2.2 1.8-2.6 0.2-1.8 1.4 1.7 2.3 3 0.9 1.8 1.5-0.7 2.3 1.2 2.1 2.5 1.3 0.5 2.7-1.9 2.1-1.2 1.1-0.8 1.4-0.3 1.7-0.5 1.6-4.5 3.3-0.7 3.1 1.7 2.6 1.1 0.7 1.4 1.8-0.2 1.2-0.9 2.6 0.5 1.3 2.1-0.6 2 0.5-11.7 16.7-0.5 0.1-4-2.2-7.7-7.6-5-1.5-15.4 0.6-2 0.9-0.4 2.4 0.8 60.1 0.5 1.5 2 3.6 3.8 0.4-1.1 3.3-2.5 2.4-1.7 0.6-1.3 1.3 0.2 1.9-0.4 1.4-1.2-0.7-1 0.8-1 2.1-0.5 2.2-1.4 1.5-0.3-0.5-1.2-1.1-0.1-0.5-1-0.5-3.1-3.4-3.3-5.2-1-1.1-8.2-6.3-0.6-0.3-1.9-3.9-1.1-4-0.2-2.5-0.5-1.5-0.7-0.7-1.3-2.7-0.2-2.2-2-3.5-1.1-1.1-1.3-0.7-1.7-0.3-3.1-2.1-0.6-0.5-1.4-0.1-3.7 0.7-4.6 0.9-0.6-0.2-2.6-2.4-1.2-0.5-1.3-0.2-9.1 0.1-2 0.4-2.7 1.2-1 0.2-1.2 0-3.7-0.6-4.4 0.1-1-0.3-0.5-0.6-0.9-1.5-1.2-1.7-1.1-1.7-3.2-1-4.8-0.1-1.3-0.4-1.1-0.9-1-1.9-1.4-1.7-1.8-1.5-1.1-1.5-1.6-1-2.3-0.6-2.5-0.2-2.2-0.7-1-0.8-1.5-1.5-1.9-1.3-1.2-0.2-5.6 0.3-7.9-1.3-1.2-0.4-1-0.7-0.6-1.1-0.1-2.7-0.4-0.9-1.4-1.5-1.4-1.9-1.3-0.9-4.3-2.1-2.8-1.9-1.5-0.7-0.1-0.5-2-0.9-1.1-0.3-1.2 0-5.4 1.7-3.7 2.2-3.3 1-2.6 0.2-2.3-0.8-1.5-1.6-0.2-2.6 0.5-2.5-0.1-2.2-1-1.7-2.4-0.9-4.1-0.7-1.4-0.5-1.2-1-0.7-1.1-0.3-1.4-0.5-6.3-0.1-0.5-7.3-1.1-6.1 0.8-2.7-4.7 0.1-6.3 0.8-6.8-1.3-5.7-2.9 0-1.3-0.8-1.3-1-27.9-33.2-2.4-2-5.7-0.8-13.3 0.4-7.7 1.5 0.2-1.6-0.2-1.3-0.8-1-5.6-5.9-1.2-1.9-0.1-1.6 1.7-3.9 2.1-3.2 0.4-1 0-1.7 0.8-1.3 1.6-1.6 1.7-0.6 1.7 0.4 5.4 2.8 1.3-0.2 1.2-1.6 0.6-1.6 0.1-4.4 0.7-2.2 2.1-4.2 0.7-2.3-0.1-4.7-0.4-2.4-0.7-1.7-1.1-0.6-2.2-0.5-0.8-1-0.8-2.8-0.4-0.9-2-2-0.5-1 0.1-1.5 1.8-4.5 0.1-2.5-1.7-7.5-0.8-1.5-0.6-1.5-0.4-1.7 0-1.9 0.9-3.3-0.7-0.6-0.7-0.1 0.6-0.6 7.6 0.9 7.4 4.6 9.3 4.3 4.4 0.5 22.8-0.6 8.6-1.2 8.4 2.2 10.1 6.7 5.4 1.6 0.1 2.1-2.8 15.1 0.1 3.2-0.2 1.5-0.6 1.1-2.1 2.2-0.2 1.5-9.6 5.5-3.2 5.4-0.5 6.3 0.3 3.2 1.3 2.9 2.2 1.7 1.7 1.9-0.5 6.2-1.2 6.2 2 1.8 5.6 0.3 1.1-2.2 0-3.4 0.9-3 2.9-1 9.7-2 2.8-1 2.4-1.7 2.1-5.6-2.6-5.7-3.9-5.2-0.5-2.8 0.4-2.9-0.4-6.4 1.4-5.6 2.6-1 5.8 0.8 5.6-2.7 5.9-1.7 2.2-1.7-1.8-5.6-3.4-4.3 4-5.1-0.2-3.4-0.8-3.4-1-2.5-2.3-0.7-1.1-0.6-0.7-1.5-1.1-0.7-1.4 0-6.4-1-6-2.5-5.2-4 1.3-5.4 11.4-5.1 24.6-5 6.1 0.1 4.9 3 1.1 6.4 3 5.4 2.7 1.7 1.3 2.8-0.5 6.5 0.1 3.3 1.1 3 2.2 0.8 8.3 0 5.5-1 14.4-6.1 2.9-0.8 2.9-0.3 2.1-1.7 0.9-1.3 2.1-2.4 1.2-1 2.9-0.1 2.6 1.6z" name="Niger"/><path id="NGA2852" d="M117.9 574.4l5.9-2.9 1.7 3.6 0.7 3.7 3.4-0.4 3.1-2 3.9-0.1 2.7 2.3 1 2.1 0.8 2.1 0.2 1.4 0.5 1.2 2.3 0.1 3-1.6 1.7 0.5 1.8 0.1 1.4-0.6 1.5-0.4 3.4-0.3 1.3 1.6-1.9 11-1.6 2.1-7.5 5.5-4.1 4.4-2.1 5.5 0 2.6 1.2 2.1 1.1 0.8 2.7 0.9 1.4 0.2 4.3 0.2 3.6-2.3 1.3-1.9 2.1-1 1.5 2.2 0 5.9 0.8 3.9-0.2 1.2-1 1-1.3 0.4-4.2 3.1-2.7 0.4-1.4 0.5 1.5 1.7 2.5 0 4.6 2 0.1 2.3-1.3 1.5-5-0.4-0.1 0.1-7.3-3.2-5.3-1 0.4-2.5-0.1-2.2-2.3-0.8-4.8-0.2-1.9 0.5-1.4-0.9-1.2-1.1-2.3-0.6-1.9-1.2-0.2-2.1 4.8-2.6 0.8-1.8-0.9-1.7-2.4-0.9-2.7 0.6-2.5 1.7-2.5 1.3-2.4-1.9-0.1-1.1-0.8-2 0.7-2.1 2-1.6 0.9-2.2-4.9-1.3-48.6 0.2-0.8 0.8-0.2 1.2-1 1.4-1.6 0.3-3-0.1-1.9-2.5-3.8-2-2-0.6-2.6 1.1-0.5 1.2-1.2 4.3-1.3 1.4-1.2 1.7-0.9 4.1-1.2 1.4-4.9 0.6-18.2-0.8-0.9 0.5 0.1 1.2-1.6 1.8-2.2 1.5-2.1 0.1-2.2-0.7-2.8 0.3-3.3-0.3 0.3-1.7 1.9-5.4 0.1-1.7-0.7-3.6 0-1.7 1-1.8 1.5-1.3 1-0.7 0.5-1-0.3-3.8-0.1-0.9-0.5-0.4-1.9-0.3-1.4-1.4-0.4-1.6 0.2-1.8 0.9-3.5-0.4-3.6-1.1-3.2-0.3-3 2.2-3 2.9-1.3 0.3-0.9-0.5-0.8-2.2-1.8-0.7-0.9-0.2-1.6 1.1-2.2 0.7-0.9 0.3-1.9-1.7-20.7 0.2-0.9 0.6-0.4 0.9 0 1.8 0.4 0.5-1.4 0.2-3.5-1.8-3.1-2.5-2.9-1.6-3.1-0.5-3.3 1-14.1-0.2-1.2-0.8-1.2-1.9-2.3-1-2.4-0.7-1.3 0.6-0.3 7.1-5.1 8.1 0.2 2.1 4 0.4 9.3 1.5 4.6 2.3 0.4 0.8-4.3 1.2-3.7 3.2-0.1 0.5 7.4-3.1 8.5 0.1 1.8 1.6 4.3 3.5 2.9 2.7 3.6 3.8 6.8 5.8 5.3 4.6 1.6 4.6-0.2 3.4-2.9 3.3-8.3 3.5-2.3 3 2.3 1.5 4.1 2.4 1.3 2.4-1.3 2.5-1.1 8.3 0.2 2.9 4.1-0.1 4.7 0.2 1.4 2.5 1.8 2.4 1.3 0.5 1.5 0 1.6 0.2 1.3 0.6 1.2 1 5-3.1 4.3-2.3 3.8 5 0.2 10.3-1.2 5.1-1.4 2.3-1.5 2.7-0.9 2.5-0.2 2.5-0.4z" name="Ogun"/><path id="NGA2853" d="M280.2 535.7l-1.5 2.5-1.9 2.3-1 0.5-2.3 0.5-1.1 1-0.8 2.9 2.5 1.6 0.4 1.5-0.9 1.8 0.3 2.6 0.5 1.2 0.3 1.9-0.8 2.7-1.1 1.2-1.4 0.9-2 1.8-1.8 2.1-0.1 1.1 0.2 0.8-3.8 8.8-0.5 2-1.1 1.5-2.2 2.3-1.1 3-0.2 3 1.2 2.5 0.3 1-1.1 1.5 0.1 1.3-1.9 0.5-0.8 2.1-1 5.3-0.4 1.2-1.2 2-0.9 0.6-1.4 0.5-2.6-0.6-1.1-1-2.4-0.2-4.1 3.3-1.8 0.3-2.2-5.5 0.8-2.4 1.4-2.1-3.8-3-23.3 0-1.4 0.6-1 1.1 0 2.2-1.3 1.8-1.1 2.2-3 2.9-2.5 3.2-1 1.8-0.3 2.7-0.3 1.2 0 2.6 0.4 0.7 0.7 0.3 1.4 2.3 1.5 4.4-1.9 4.4-1.4 2.1-0.6 2.5-1.2 2.1-2.1 1.1-1.8 0.6-1.2 1.8-0.4 2.4-1.2 2.3 0.5 0.8 1.7 1 2 1.7 1.7 2.1 0.2 1.1 1.8 0.3 1.9 1.1 1.6 2.4-0.1 2.7-9.3 22.7-9.7-12.7-1.7-1.6-3.3-1.4-1.5-1.7-2.1-3.3-2.9-3.1-2.6-2-9-5.7-5.1-4.8-3.2-2.1-1.3-0.6 0.1-0.1 5 0.4 1.3-1.5-0.1-2.3-4.6-2-2.5 0-1.5-1.7 1.4-0.5 2.7-0.4 4.2-3.1 1.3-0.4 1-1 0.2-1.2-0.8-3.9 0-5.9-1.5-2.2-2.1 1-1.3 1.9-3.6 2.3-4.3-0.2-1.4-0.2-2.7-0.9-1.1-0.8-1.2-2.1 0-2.6 2.1-5.5 4.1-4.4 7.5-5.5 1.6-2.1 1.9-11 3.2-1.7 1.3-1.8 0.6-2.2 2.3-3.8 3.5-2.9 3.3-0.9 3.1 1.3 4.2 2.7 1 0.5 2.2 0.2 0.9-0.6 0.2-1.9-0.2-1.9 0.3-2.2-0.1-6.3 0.7-4 1.5-4 3.6-1.8 4.1-1.2 0.1-3.3 5.8-1.9 3.1-0.1 9.1 0.6 5.9-0.3 4.3 1.3 2 4 1.8 5.9 4.6 1.8 8.8-7.4 4.6-10.7 1.4-8 1.1-2.4 3.7-3.9 2.1-1.3 1.1-1.4 0.8-1.5 2.1-1.2 2.3 1 2.1-0.8 1.5-2.4 6.7-1.2 2.5 1.1-0.6 3.3 4.2 6.5 5.2 5.7z" name="Ondo"/><path id="NGA2854" d="M262.2 520.3l-1.5 2.4-2.1 0.8-2.3-1-2.1 1.2-0.8 1.5-1.1 1.4-2.1 1.3-3.7 3.9-1.1 2.4-1.4 8-4.6 10.7-8.8 7.4-4.6-1.8-1.8-5.9-2-4-4.3-1.3-5.9 0.3-9.1-0.6-3.1 0.1-5.8 1.9-6.6-17.9-0.5-4.3 0.9-3.7 0.7-10.1 3.9-5.1 3.1-1.5 2.6-2.3 1.9-6.9 1 0.6 0.4 1.5 1.7 0.7 5.2-1.6 5.5 3.5 3.3 0.2 2.1 0.5 3.5-0.6 1.4 0 1-2 0.5-2.7 1.8-2.1 2.9-0.9 9-0.3-1.7 2.3 0.1 3.6 1.6 0.6 2.3-1.4 3-0.7 3-0.3 1.6 0.2 1.2 0.9-0.1 1.9-1.9 1.1-2.4 3-0.6 3.6 1.2 3.6 2.8 2.5 1.1-0.1 1.4 1.2 6.5 3.2 3.8 1.1z" name="Ekiti"/><path id="NGA2855" d="M200 497.2l-1.9 6.9-2.6 2.3-3.1 1.5-3.9 5.1-0.7 10.1-0.9 3.7 0.5 4.3 6.6 17.9-0.1 3.3-4.1 1.2-3.6 1.8-1.5 4-0.7 4 0.1 6.3-0.3 2.2 0.2 1.9-0.2 1.9-0.9 0.6-2.2-0.2-1-0.5-4.2-2.7-3.1-1.3-3.3 0.9-3.5 2.9-2.3 3.8-0.6 2.2-1.3 1.8-3.2 1.7-1.3-1.6-3.4 0.3-1.5 0.4-1.4 0.6-1.8-0.1-1.7-0.5-3 1.6-2.3-0.1-0.5-1.2-0.2-1.4-0.8-2.1-1-2.1-2.7-2.3-3.9 0.1-3.1 2-3.4 0.4-0.7-3.7-1.7-3.6-5.9 2.9 5.7-30.4-0.5-2.4-1.6-1.9-1.3-2.7-1.9-2.3-2.3-1.5-1.7-1.9 0.1-2.4 1.4-2.1 0.8-2.4 0.4-2.5 0.3-5.5 1.4-3.8 5.6 1.5 4.3-3.1-0.1-1.8 1.6-1.5 1.5-2.2 1.8-1.8 2.6 1 2.3 2 3.1 5 3.3 0.7 1.8-1.8 2.4-1.7 1-1.3 0.8-0.3 1.4-1.2 1.6-0.9 1.5-0.6 1.8-0.3 1.1-1.6 0.2-2.9-0.6-2.8 5.4-0.3 5.4 0.5 4.7-1 2.1-0.9 2.3-0.5 5.4-0.5 3.3-1.3 3.5 0.1 1.7 2.9 2.5 1.6 4.8-0.6 1.2 0.2z" name="Osun"/><path id="NGA2856" d="M157.7 497l0.6 2.8-0.2 2.9-1.1 1.6-1.8 0.3-1.5 0.6-1.6 0.9-1.4 1.2-0.8 0.3-1 1.3-2.4 1.7-1.8 1.8-3.3-0.7-3.1-5-2.3-2-2.6-1-1.8 1.8-1.5 2.2-1.6 1.5 0.1 1.8-4.3 3.1-5.6-1.5-1.4 3.8-0.3 5.5-0.4 2.5-0.8 2.4-1.4 2.1-0.1 2.4 1.7 1.9 2.3 1.5 1.9 2.3 1.3 2.7 1.6 1.9 0.5 2.4-5.7 30.4-2.5 0.4-2.5 0.2-2.7 0.9-2.3 1.5-5.1 1.4-10.3 1.2-5-0.2 2.3-3.8 3.1-4.3-1-5-0.6-1.2-0.2-1.3 0-1.6-0.5-1.5-2.4-1.3-2.5-1.8-0.2-1.4 0.1-4.7-2.9-4.1-8.3-0.2-2.5 1.1-2.4 1.3-2.4-1.3-1.5-4.1-3-2.3-3.5 2.3-3.3 8.3-3.4 2.9-4.6 0.2-4.6-1.6-5.8-5.3-3.8-6.8-2.7-3.6-3.5-2.9-1.6-4.3-0.1-1.8 3.1-8.5-0.5-7.4-3.2 0.1-1.2 3.7-0.8 4.3-2.3-0.4-1.5-4.6-0.4-9.3-2.1-4-8.1-0.2-7.1 5.1-0.6 0.3 0.1-1 1.2-2.4 0.3-5.3 1-5.3 0.2-5 0.3-1.6 0.6-1.4 0.9-1.4 0.6-1.6 0.1-1.8-0.6-1.8-1.6-3.5-0.7-1.8-0.3-2.1 0.1-1.6 0.7-3.4-0.2-3.1 0.4-1.1 1.7-1.9 0.6-1 0.7-2.8-0.2-2.5 4.9-4.2 3.2 0.1 6.6-1.5 2-1.3 1.5-1.9 4.6-3.7 1.9-0.8 0.6-0.8 1.3-1.1 1.7-1 3.4-3 1.8-1.1 1.9-0.6 1.3-0.1 1.4 0.3 0.6 0.9 1 0.5 0.9 1 1.1-0.2 9.8-4.5 3.7-2.8 3.4-1.7 3.6-2.7 17.1-8.6 1.9-1.4 1.6-1.8 0.8-5.5 2.1-4.1 3.7-2.7 4-0.4 3.8 1.7 2.4 3.1 1.9 3.7 3.2 2.8 3.7 1.9 9.8 3.5 6.1 1.4 2.3 0 4.1-2.5 1.4 3.2-2.8 4.1-2.8 1.6-2 2.1-1.4 2.2-1.8 1.8-1.1 5.1 1.1 5.1 7.4 16.4 2.9 4.5 2.9 11.3 3 4.4 1.9 1.7 2.2 1.4 3 4.9 2.4 8 1 1.7 1.4 0.3 1.4 0.9z" name="Oyo"/><path id="NGA2857" d="M391.3 665.8l-5.6 3-3.9 4.9-3.4 0.8-3.4 1.1-7.6-1.6-3.8 0.4-3.7 0.9-3.2 1.9-1.1 3.6-3.2 6.7-3.3 0.9-3.6-1.5-6.5 1.8-5.5 4.5-2.8-0.2-2.5-2.3 0.3-3.5 0.6-2.3 0.8-2.1 1.6-2.9 3.3-4.4 0.5-1.5-0.1-2.2 1.1-4.3-0.3-4.4 0.4-1.9 1.6-1.3 2-0.8 0.5-0.7 0.4-1.1 0.2-3.7-0.1-1.2-0.4-1.1-1.1-2.1-0.4-1.2-0.3-3.2-1.5-4.1-0.5-4.6-2.3-8.2-0.4-2.5 0-2.6 0.8-0.2 1.8 0.1 2.2 0.5 2.1-0.4 2.8-2.7 1.8-8.2 2-4 5.6-5.3 0.7 2.3-0.1 2.7 1.1 0.5 4.5-0.2 4.8 2.1 2.6 0.5 2.6 1.1-0.4 5.7-4.6 5-2.3 6.3 0.8 2.1 1.2 0.6 2.8 0.5 1.2 0.7 1.7 2.3 3.4 7.7-1.1 1 0 1.6-0.5 2.5 0.7 1 1.3-0.3 1.2-0.9 1.3 0.9 0.4 2 2 1.5-0.5 2.9 1 2.4 1.4 2.3 0.9 2.6 1.8 2.1 2.3 0.4 2.2-0.7 0.9 0.1 1.5 0.9 0.4 0.9 0.9 0.1z" name="Anambra"/><path id="NGA2858" d="M694.9 221.6l-1.7 1.2-1.3 1.9-2 2.2-7.8 4.5-4 5.5-2.7 2.1-6.3 1.9-2.5 2.2-2.5 6.3-2.9 10-1.2 3.1-4.4 6.2-0.2 2.3 8.9 3.9 2.6 5.8 0.9 6.7 5.9 2.8 5.3 3.3 1.8 5.1-0.2 11.8 0.3 2.5-0.2 2.5-9.5 4.8-0.5 2.8 3.5 4.9 17.2 12.8 2.4 5.6 0.6 5.4 1.4 5.3 2.3 4.8 1.9 2.4-0.6 2-5.7 0-5.8-1.4-5.5 0.9-10.2 4.9-10.6 0.3-4.4 2.9-2.6-1.1-13.9-8.7-40.8-19-2.6 0.6-1.2 0.8-1.1 1.9 3.3 4.6 1.1 3-0.8 2.8-5.5 2.1-2.1 1.8-2.5 5.2-2.9 1.2-3.3 0.7-13.1 0.7-11.8-2.2-5.1-1.7-2.9-5-3.7-4.4-3-0.9-2-2.1 0.4-2.6 1.1-2.4 1.4-2.3 0.7-2.5-0.4-6.9-1.8-5.8-5.3-1.9-9.6 1.7-3.1-2.1 0.1-13.5-0.4-4.2-1.7-4.6-2.9-3.7-4.9-1.3-4.8 0.9-1.8-2.1-1.9-1.8-2.5-1.4-1.2-2.2 2.9-5.1 0.9-5.5 3.8-4.2 2.3-5.6-0.6-5.8-3.8-4.5-2.3-6.5-0.3-7.1 0.5-6.4 2.6-5.3 4.9-0.3 3-1.4 2.3-2.4 3.2-4.9 8.5-8.9 5.6-2.6 2.7 1.5 1.5-0.3 6.3-2.6 5.1 0.1 4.9 1.4 5.2 2.2 5.3 0.3 5.2-0.8 3.3 4.2 4.2 1.5 10.7-0.8 4.8-1.2 3.6 3.4 1.9 5.1 0 5.5-0.7 5.4 1.9 4.7 4.8 2 13.1-1 2.9 1.5 3.2 1.2 2.3-1.4-1-3.1 1.8-5.7 9.2-3.6 2.8-1.8 2-2.3 0.4-2.8-6-2-7.1-0.3-13.2-2.5-6.1-2.4-8-10.7-3.4-6.1-1.5 0.5-2.7 0-1.6-2.3 0.3-2.8 2.8-5.2-0.1-2.9-1.3-6.1-1.3-2.8-2.8-0.7-3 0.4-5.1 1.4-3.5-2.4 1.7-6.3 4.5-4 7-0.6 2.8-1.3 2.7-1.8 25.4-9.7 1.3-2.9-0.7-3.5 0.5-2.8 6-16.9 0.8-3.8 1.2-3.7 1.9-1.8 2.6-1 6.2-1.1 2.6 1.7 4.4 1.1 11-7.4 5.6 3.9 4.8 4.7 1.1 3.2 1.3 6.7 0.1 3.4 0.4 3 1.7 2.7 1.7 3.3 0.5 3.7 0.1 5.9 2.5 13.6 10 24.8 0.5 7.2-2.9 13.2 2.2 2.8 4 0.7z" name="Bauchi"/><path id="NGA2859" d="M752 281l1.1 7.3-6.2 10.1-0.2 3.7 1.8 3.7 2.6 3.2 3.1 2.2 3.6 1.4 3.1 2 5.6 9.1 5.9 3.8-0.9 7.3 0.5 11.2-1.3 3.5-3.1 2.5-15.4 9.3-7.1 3.2-7.6 1.2-29.2 1.2-8.9-0.7 0.6-2-1.9-2.4-2.3-4.8-1.4-5.3-0.6-5.4-2.4-5.6-17.2-12.8-3.5-4.9 0.5-2.8 9.5-4.8 0.2-2.5-0.3-2.5 0.2-11.8-1.8-5.1-5.3-3.3-5.9-2.8-0.9-6.7-2.6-5.8-8.9-3.9 0.2-2.3 4.4-6.2 1.2-3.1 2.9-10 2.5-6.3 2.5-2.2 6.3-1.9 2.7-2.1 4-5.5 7.8-4.5 2-2.2 1.3-1.9 1.7-1.2 11.6-3.1 11.4 5.6 5.3 4.2 4.6 4.9 4 5.5 8.7 8.8 1.8 2.3 0.5 2.9-1 19.4 0.5 6.1 0.8 2.5 5.8 0.6 3.1-0.3z" name="Gombe"/><path id="NGA2860" d="M328.2 690.7l-2.1 9.7-1.7 3.8-0.7 4.1-1 2-1.6 1.7-2 0.9-1.7 1.8 1.5 3.7 0.1 1.8-1.3 0.7-10.8 1.7-1.3 0.4-1.6 1.2-1.4 1.5-0.4 0.8-0.2 2.2-0.2 0.5-1.5 0.4-3.5-0.1-1.5 0.6-0.7 2 0.2 0.9 0.8 1.3 0.1 0.7-0.4 0.9-0.9 0.5-2.1 0.6-1.7 1.5-1.1 0.2-3-0.6-0.7 0.3-2.4 3.3-1.4 0.8-2.2-0.3-1.7-0.8-1.8-1-2.8-2.5-1.1 0.5-2.7 3.9-2.3 1.2-2.6 0.5-1.5-0.3-1.6 0.5-1.5 0.7-1.6 0.5-2.8 2-3 1.6-1.3-0.1-1.5 0.2-2-0.3-1.6-1.2-4.2-2.3-3.8-1.3-3.2-2.1-2.3-1.9-0.4-1.3 1.7 0.2 1.7 0.4-0.6-1-2.3-2.5-0.8-0.5-0.3 0.4 0 1.5-0.3 0.3-1.3 0.2-1.3 0.4-1-0.5-2 0.4-0.9-0.5-0.2-0.6 0.2-3.1-0.4-3.8-1.7-7.5 0.4-1.1 2-0.5 5.5-0.1 1.6-0.4 0.4 1.3 0.7 1 0.7-0.5 0.6-1.3 0.9-0.9 2.9-1.1 1.4-0.2 1.3 0 0.7-0.5-2-1.7-0.8-1.3-0.4-2.5 0.2-1.3 0.5-1 1.1-0.7 1.3-0.3 2.7 0.1 1-0.5 1-1.1 1.2-1.9-1.3 0.6-1.2 1-1.1 0.6-1.6-0.4-1.1 1.2-1.9-0.5-2 1-1.2 1.9 0.5 2.1-0.9 2.1-1.1 1.2-1.4 0.3-1.7-0.7-1-1.5-1-0.2-0.4 0.5 0.2 1.1 1.1 1.8-4.9-0.2-9.3-3.2-1.1-1.8-2.7-2.4-1.7-1.2-0.6-1.8-0.2-1.8 0.3-0.8 0.5-0.3 1.4-1.5 1.3-0.6 8.2 0.3 3 0.6 1.8 0.9 0.5 0 0.9-1.1 1.3-3 0.7-1 1.1-0.5 1.3 0.1 1.2 0.3 0.9 0.7 0.9 2.8 1.3-0.3 0.1-1.4-0.6-1.3-1.4-1.4-1.7-1.2-1.4-0.7-1.6 0.1-0.8 0.8-1 2.6-0.9 0.8-1.4 0.6-1.5 0.4-1.3-0.1-1.6-0.9-0.7-1.2 0-1.4 1.6-4.6 0.2-1.2-0.2-1.6-0.5 0-2.2 6.3-0.9 1.6-1.1 1.1-1.5 0.6-1.9 0.1-0.9 0.3-2 1.1-2.1 0.8-1.6-1-1.3-1.2-1.3-1.6-1-1.7-0.8-2.4-1.6-2.7-0.3-1.9 0.2-1.7 0.5-1.9 0.8-1.5 1-0.7 1 0.4 1.7 1.3 0.6 0.2 0.4-0.6-0.5-1.6 0.1-0.8 2.6-2.3 6.8-2.5 1.9-3.2-1.7 0.3-2.9 2.6-3.2 1-6.4 3.3-1.2 0.9-4.2 3.9-0.8-0.1-3.1-6.8-0.4-0.5 9.3-22.7 5.9 2.8 3.9 4.5-0.8 5.6 0.7 4.3 1.7 1.3 1.4-0.6 4.8-4.2-0.4-2.7 0.8-2.1 5.4 0.3 2.5-0.4 3.1 0.2 3.2 2.3 2.4 0.8 0.8-0.7 0.5-1.1 4.6-2.9 5.1-0.2 9.7 5.3 4.6 5 2.8 1.5 2.3 1.8-0.4 3-1.7 3 0.3 0.9 1 0.8 0.4 1-0.3 1 0.1 1.3 1.4 0.5 1.5-0.1 8.1-1.7 4.3-3.1 3.4-4 4.6-3.5 3.5-4 1-3.2-0.1-3.3-1.1-0.9-1.5-0.4-5-4.6-2.5-4.2-1-3.3-0.3-2.8-2.7-4.7 0.3-3 1.2-2.4 1.9-1.8 2.9 0.3 2.1 2.2 1.7 2.7 2.3 0 3.4-4.3 2.2-1.4 7.9-3.3 10.1-6.1 5.1-2.1 2.9-0.1 3 0.5 2.3-0.8 2.6-3.1 0 2.6 0.4 2.5 2.3 8.2 0.5 4.6 1.5 4.1 0.3 3.2 0.4 1.2 1.1 2.1 0.4 1.1 0.1 1.2-0.2 3.7-0.4 1.1-0.5 0.7-2 0.8-1.6 1.3-0.4 1.9 0.3 4.4-1.1 4.3 0.1 2.2-0.5 1.5-3.3 4.4-1.6 2.9-0.8 2.1-0.6 2.3-0.3 3.5z" name="Delta"/><path id="NGA2861" d="M334.1 622.8l-2.6 3.1-2.3 0.8-3-0.5-2.9 0.1-5.1 2.1-10.1 6.1-7.9 3.3-2.2 1.4-3.4 4.3-2.3 0-1.7-2.7-2.1-2.2-2.9-0.3-1.9 1.8-1.2 2.4-0.3 3 2.7 4.7 0.3 2.8 1 3.3 2.5 4.2 5 4.6 1.5 0.4 1.1 0.9 0.1 3.3-1 3.2-3.5 4-4.6 3.5-3.4 4-4.3 3.1-8.1 1.7-1.5 0.1-1.4-0.5-0.1-1.3 0.3-1-0.4-1-1-0.8-0.3-0.9 1.7-3 0.4-3-2.3-1.8-2.8-1.5-4.6-5-9.7-5.3-5.1 0.2-4.6 2.9-0.5 1.1-0.8 0.7-2.4-0.8-3.2-2.3-3.1-0.2-2.5 0.4-5.4-0.3-0.8 2.1 0.4 2.7-4.8 4.2-1.4 0.6-1.7-1.3-0.7-4.3 0.8-5.6-3.9-4.5-5.9-2.8 0.1-2.7-1.6-2.4-1.9-1.1-1.8-0.3-0.2-1.1-1.7-2.1-2-1.7-1.7-1-0.5-0.8 1.2-2.3 0.4-2.4 1.2-1.8 1.8-0.6 2.1-1.1 1.2-2.1 0.6-2.5 1.4-2.1 1.9-4.4-1.5-4.4-1.4-2.3-0.7-0.3-0.4-0.7 0-2.6 0.3-1.2 0.3-2.7 1-1.8 2.5-3.2 3-2.9 1.1-2.2 1.3-1.8 0-2.2 1-1.1 1.4-0.6 23.3 0 3.8 3-1.4 2.1-0.8 2.4 2.2 5.5 1.8-0.3 4.1-3.3 2.4 0.2 1.1 1 2.6 0.6 1.4-0.5 0.9-0.6 1.2-2 0.4-1.2 1-5.3 0.8-2.1 1.9-0.5-0.1-1.3 1.1-1.5-0.3-1-1.2-2.5 0.2-3 1.1-3 2.2-2.3 1.1-1.5 0.5-2 3.8-8.8-0.2-0.8 0.1-1.1 1.8-2.1 2-1.8 1.4-0.9 1.1-1.2 0.8-2.7-0.3-1.9-0.5-1.2-0.3-2.6 0.9-1.8-0.4-1.5-2.5-1.6 0.8-2.9 1.1-1 2.3-0.5 1-0.5 1.9-2.3 1.5-2.5 1.4 0.7 1.7-0.3 1.4 0.9-0.3 1.6 2.7 0.9 0.6 1.9-0.9 3.7 2.1 2.9 3.8-0.1 3.8-1.6 1.7-1 1.6-0.4 0.9 1.5 1.2 1 2.8 1.9 2.3 2.7 2 0.1 3.1-0.8 1.7 0.2 2.1 1.9 1.9 4.7 1.1 1.5 0.4 1.6 1.1 1.6 4.1-0.8 3.4-1.4 2.2-0.2 1.3 1 0.9 1.1 0.2 1.5 1.1 0.6 2.2 0.7 0.2 0.7 1.3 2.9 0.4 2.4-0.4 1.5-1 3.1-0.4 4.4-0.7 1.9-0.1 0.9 0.1 3.7-0.2 0.7-2.2 4.7-0.9 3.3-0.1 1.4 0.5 4.4-0.3 10.7 0.3 3.6 1.7 4.7 0.1 2.5z" name="Edo"/><path id="NGA2862" d="M402.1 577.5l0.8 3.4 3.2 6.7 2.3 2.9 2.8 2.6 3.1 2.3 3.2 1.5 3.3-0.4 2.5-1.9 3-0.8 3.4 1.7 2.1 3.4 0.9 4 0 4.1-2.8 7.8-5.6 0.6-2.8-0.3-2.6 1.7 3.3 10.7-0.1 5.9-3.6 11.2 1.5 2.2 0.1 1.1 0.9 3.5 0.2 2.6 0.6 2.6 0.2 2.5-1.7 2.5-2 2.3-0.6 4.2 1 4.3-2.3 1.2-2.9-2.8-1.8-1.2-2.1-1.1-4.2 1.3-5.4-4.1-4 0.2-4 0.6-0.7-0.7-0.9-0.1-0.4-0.9-1.5-0.9-0.9-0.1-2.2 0.7-2.3-0.4-1.8-2.1-0.9-2.6-1.4-2.3-1-2.4 0.5-2.9-2-1.5-0.4-2-1.3-0.9-1.2 0.9-1.3 0.3-0.7-1 0.5-2.5 0-1.6 1.1-1-3.4-7.7-1.7-2.3-1.2-0.7-2.8-0.5-1.2-0.6-0.8-2.1 2.3-6.3 4.6-5 0.4-5.7-2.6-1.1-2.6-0.5-4.8-2.1-4.5 0.2-1.1-0.5 0.1-2.7-0.7-2.3 2.2-4.5 2.8-1.8 0.6 2.7 0.6 0.5 1.3 1.9 2.1 1 3.6-2.9 3.2-3.8 6.9-4.9 4.2-3.8 4.7-6.3 1.6-1.4 2.6-0.9 2.6-2.1 3.1-1.6 4 0.3 2.8 2.5z" name="Enugu"/><path id="NGA2863" d="M468.5 611l1.2 4.6 3.2 3.7 2.2 1.6 0.6 0.8 0.3 0.9 1.4 1.6 0.4 2.6 0.9 2.3 1.7 2.2 0.3 2.7-5.2 2.9-0.6 2.8 1.6 2.5-0.7 5.7-4.7 4.7-1.9 2.5-1.6 2.5-1.5 6.3-1.4 2.2-2.4-1.1-2.2 0-1.1 1.8-1.3 1.6-3.8 1.8-1.6 1.5-2.1 0.1-1.6-3.8-3.1-0.9-3.4 1.1-1 2.1 1.4 2.6-1.1 3.7-2.9 4.6-1.2 1.1-0.1 2 0.3 1.9-1.1 1.7-1.3 1.5-0.8 2-0.3 2.1-3-1.1-2.7-2.1-1.4-2.6-0.6-2.9-4.5-2.1-12.1-0.1-4.9-2.5 0.7-5.4-0.1-4.9 4.2-1.3 2.1 1.1 1.8 1.2 2.9 2.8 2.3-1.2-1-4.3 0.6-4.2 2-2.3 1.7-2.5-0.2-2.5-0.6-2.6-0.2-2.6-0.9-3.5-0.1-1.1-1.5-2.2 3.6-11.2 0.1-5.9-3.3-10.7 2.6-1.7 2.8 0.3 5.6-0.6 2.7 5.8 5.7 3.5 3.7-5 0.8-7 1.3-2.8 3.5-0.5 3.3 0 3.2-0.8 3.1-4.1 1.9-0.4 1.9 0 0.9-1.3 0.4-0.9 1.7 0.1 0.9 1.4 0.6 3.2 1.1 2.8 1.9 2.2z" name="Ebonyi"/><path id="NGA2864" d="M505.9 284.8l-0.9 5.5-2.9 5.1 1.2 2.2 2.5 1.4 1.9 1.8 1.8 2.1-0.8 2.4-0.4 2.8-2 2.7-3 1.4-4.2 4.7-1.5 6.3 2.2 6.4-3.3 11.1 0 6.5-0.5 3.3 0.7 2.8-3.4 4.8 0 1.4-0.2 1.5-2.4 1.8 0 12 3.4 5 3.9 4.1 3.2 4.5-0.4 5.2-1.7 4.8-3.1 3.6-2.1 5-2.7 4.7-3.5 3.6-3.3 0.4-2-2-1.1-1.9-1.6-1.6-3.4-4.4-7.5-2-2.7-1.1-2.2 2.1-4.8 6.8-6.6 3.6-2.1-8.1-0.9-9.9-3.3-2-2.7-2.1 0.1-2.2-0.8-1.9-2.7-2.5-5.1 0.8-3.2 5.9-2.9 1.3-2.8-1.2-2.8-0.2-2-1.7-2.7 0.2-2-1-1.2-2.3-2.3 1.1-2.7 0.6-1.5-2.9-3-1.1-2.6 3.7-1.8 1.3-2.1-0.9-2.3-0.3-2.3-0.1-7.9 0.9-2-0.5-2.1 0.6-0.5-1.3 0.9-2.6 0.2-1.2-1.4-1.8-1.1-0.7-1.7-2.6 0.7-3.1 4.5-3.3 0.5-1.6 0.3-1.7 0.8-1.4 1.2-1.1 1.9-2.1-0.5-2.7-2.5-1.3-1.2-2.1 0.7-2.3-1.8-1.5-3-0.9-1.7-2.3 1.8-1.4 2.6-0.2 2.2-1.8 0.1-3.1-1.6-13.5-4-2.8-12.3 0.2-6.2-0.7-5.9-2.6-3.8-4.9 2-2.3 2.8-1.8 2.2-2.7 2.7-2.2 2.7-1.8 2-2.6 0.2-2.9-2.5-1.7-5.9-2.2-1.8-1.9 1.1-3-0.1-6.8-4.6-3.9-2.9 0.9-1.4-0.4-0.5-6.8-0.7-1.7-2.6-1-3-0.2-2.7 1.1 0.4 3.4-1.9 1.3-3.2-0.5-3.1 0.6-6.1 2.8-2.6-0.5-1.1-2.6-2.2-1.5-5.9 1.3-9.9 7.7-4.3 4.7-1.8 2.8-2.1 2.4-2.9 0.4-1.4-2.9-2.1-2.5-2.7-2-0.5-2.9 0.3-1.7 0.5-1 0.2-3.4 0.2-1 1.2-2.9 0.4-1.9-0.1-2-1.4-4.3-0.1-2.1 0.5-7.1 0.7-2.1 1.6-1.9 1.7-0.8 3.8-1.3 1.2-1.1 0.4-1.1 0.1-2.2 0.7-1.1 0.8-0.6 2-0.7 0.9-0.6 1-1.3 1.5-3.1 1-1.3 1.6-0.6 1.8 0.2 5.5 2 1.8 0.4 1.9 0 5.4-1.6 2.3 0 8.5-3.2 1.4-0.9 1.3-1.1 1.1-1.4 0.8-1.9 1.6-7.6 0.9-2.6 1.7-2.1 5.9-3.7 1.6-1.7 1.4-2.5 3.8 1.9 2 0.5 4.4 0.1 1.8 1.3 1 2-0.3 1.6-1.3 1-2.3 2.5 0.1 2.4 6.1 1.6 2.9 1.8 4.4 4.5 2.7 0.4 2.8-1.5 2-2.2-0.1-2.5-1.4-2.1 1.4-4.6 6.3 0.1 3 1.1 2.3-1.3 0.4-3 1.4-2.7 5.2-3.1 6.1 1.2 3.2 1.4 2.9 2.1 1.6 2.2 2.4 1.1 6.7-2.8 2.9-4.4 5.7-0.5 9.8-7.3 11.7-3.8 2.9 1.4-0.1 3.2-1.5 2.8-0.4 3 1.7 2.8 2.7 1.8 5.8 2.1 2.7 2.2 2.1 2.8 5.8 2.2 6.3 1.7 8.5 9.1 1.6 11.8-1.6 6.5 1.3 10.1-1.2 3.2-3.5 0.9-1.7 2.3 4.5 3.9 6.7 0.8 3.7 4.4 1.6 0.8 3.4 0.9 1.8-0.4z" name="Kaduna"/><path id="NGA2865" d="M347.3 465.6l5.1-0.2 3.1 0.4 3.7-0.6-0.7 2.9-2.1 5.4 4 7.1 0.4 5.5-1.3 12.4-1 2.6-1.5 2.4-1 3.4-0.1 3.5 0.7 0.2 2-0.9 2.8-1.8 2.3-2.2 4.3-2.5 16.8-5.7 2.8-0.3 14.6 1.2 11.8-1.1 2.4 0.4-0.4 4.8 0.2 4.4 1 4.3 2.5 3.6 2.4 2.5 1.7 3 0.3 3-0.2 9.7 1.3 10.1 1 3.3 2.7 1.4 3.2-0.4 2.1 1.5-1.7 2.9-1 2.4-0.2 2.7-1.5 6.8-3.4 5.7-11.1 6.1-1.3 3.3-0.3 3.8-2.2 0.7-2.7-1.3-3.5-2.9-3.2-1.6-2.8-2.5-4-0.3-3.1 1.6-2.6 2.1-2.6 0.9-1.6 1.4-4.7 6.3-4.2 3.8-6.9 4.9-3.2 3.8-3.6 2.9-2.1-1-1.3-1.9-0.6-0.5-0.6-2.7-2.8 1.8-2.2 4.5-5.6 5.3-2 4-1.8 8.2-2.8 2.7-2.1 0.4-2.2-0.5-1.8-0.1-0.8 0.2-0.1-2.5-1.7-4.7-0.3-3.6 0.3-10.7-0.5-4.4 0.1-1.4 0.9-3.3 2.2-4.7 0.2-0.7-0.1-3.7 0.1-0.9 0.7-1.9 0.4-4.4 1-3.1 0.4-1.5-0.4-2.4-1.3-2.9-0.2-0.7-2.2-0.7-1.1-0.6-0.2-1.5-0.9-1.1-1.3-1-2.2 0.2-3.4 1.4-4.1 0.8-1.1-1.6-0.4-1.6-1.1-1.5-1.9-4.7-2.1-1.9-1.7-0.2-3.1 0.8-2-0.1-2.3-2.7-2.8-1.9-1.2-1-0.9-1.5-1.6 0.4-1.7 1-3.8 1.6-3.8 0.1-2.1-2.9 0.9-3.7-0.6-1.9-2.7-0.9 0.3-1.6-1.4-0.9-1.7 0.3-1.4-0.7-5.2-5.7-4.2-6.5 0.6-3.3-2.5-1.1-6.7 1.2-3.8-1.1-6.5-3.2-1.4-1.2-1.1 0.1-2.8-2.5-1.2-3.6 0.6-3.6 2.4-3 1.9-1.1 0.1-1.9-1.2-0.9-1.6-0.2-3 0.3-3 0.7-2.3 1.4-1.6-0.6-0.1-3.6 1.7-2.3-0.7-5.1-5.5-3.4-3.4-3.1-0.8-1.6-1.5-1.2-1.2-1.5-2.5-4.8 0.7-2.8 9.5-11.9 3.7-3.4 3.3 1.3 4.2 4.2 8.3 3.1 8.2 1.9 11.5 0.6 9.2 2.1 2.8-0.6 1.7-2 0.8-2.5 1.3-8.7 3.4-11.6 3.5-4.6 3.7-0.7 1.4 0.1 0.6 0.5 3.1 2.1 1.7 0.3 1.3 0.7 1.1 1.1 2 3.5 0.2 2.2 1.3 2.7 0.7 0.7 0.5 1.5 0.2 2.5 1.1 4 1.9 3.9 0.6 0.3 8.2 6.3 1 1.1 3.3 5.2 3.1 3.4 1 0.5 0.1 0.5 1.2 1.1 0.3 0.5 1.4-1.5 0.5-2.2 1-2.1 1-0.8 1.2 0.7 0.4-1.4-0.2-1.9 1.3-1.3 1.7-0.6 2.5-2.4 1.1-3.3z" name="Kogi"/><path id="NGA2866" d="M657.2 373.8l1.8 4 0.5 4.5-0.6 5.4 0.9 6.3 0.7 2.5 1.4 2.3 2.4 8 0 2.4-0.6 2.7 1.1 5.2 0.1 3.2-2.9 5.4-13.2 6.6-19.2 4.7-4 4.8-1.9 3-4.4 5.3-2.3 2.1-5.9 3.2-5.5 4-4.8 4.9-5.4 4.1-6 1.7-6.3 0.5-4.5-0.3-3.1-4.4-4.5-2.9-9.7-4.1-5.2-0.2-5.3 1.6-7.6 1.4-7.8-0.1-5.1-1.4-6.9-3.7-1.9-3.4 0.5-4.1-0.6-3.5-2-2.8-1.6-4.1 1.4-3.5 2.1-2.6 2-3 3.1-1 1.9-1.9 3.5-4.7 1.2-3 0.5-2.4-1.5-1.9-2.3-1.5-2.6 0.7-1.3 0.6-1.4 0.2-5.7 0.1-5.5-1.1-3.9-4.1-1.3-5.7-4.1-3-4.8-2.4 1.7-4.8 0.4-5.2-3.2-4.5-3.9-4.1-3.4-5 0-12 2.4-1.8 0.2-1.5 0-1.4 3.4-4.8-0.7-2.8 0.5-3.3 0-6.5 3.3-11.1-2.2-6.4 1.5-6.3 4.2-4.7 3-1.4 2-2.7 0.4-2.8 0.8-2.4 4.8-0.9 4.9 1.3 2.9 3.7 1.7 4.6 0.4 4.2-0.1 13.5 3.1 2.1 9.6-1.7 5.3 1.9 1.8 5.8 0.4 6.9-0.7 2.5-1.4 2.3-1.1 2.4-0.4 2.6 2 2.1 3 0.9 3.7 4.4 2.9 5 5.1 1.7 11.8 2.2 13.1-0.7 3.3-0.7 2.9-1.2 2.5-5.2 2.1-1.8 5.5-2.1 0.8-2.8-1.1-3-3.3-4.6 1.1-1.9 1.2-0.8 2.6-0.6 40.8 19 13.9 8.7 2.6 1.1z" name="Plateau"/><path id="NGA2867" d="M499.1 398.4l4.8 2.4 4.1 3 1.3 5.7 3.9 4.1 5.5 1.1 5.7-0.1 1.4-0.2 1.3-0.6 2.6-0.7 2.3 1.5 1.5 1.9-0.5 2.4-1.2 3-3.5 4.7-1.9 1.9-3.1 1-2 3-2.1 2.6-1.4 3.5 1.6 4.1 2 2.8 0.6 3.5-0.5 4.1 1.9 3.4 6.9 3.7 5.1 1.4 7.8 0.1 7.6-1.4 5.3-1.6 5.2 0.2 9.7 4.1 4.5 2.9 3.1 4.4-2.3 3.6-3.4 2.2-2.3 0.1-2.4-0.3-2.5-0.8-2.3-0.4-2-1-4.1-1.4-2 0.9-1.4 1.8-0.9 2.2-0.3 2.6 4.4 5.6 0.3 4.3-0.2 1.5 0.6 1.5 0.3 2.3-1.7 1.5-12.1 8.1-2.8 2.4-15.9-11.8 0 0.4-3 0.3-9.1-0.3-6.1-1.4-16.8-5.6-10.9 1.3-4.7 3.9-1.3 5.9 1.9 6.1 3.9 8.6 0.6 3-1.1 1.3-1.6-0.4-1-0.5-2.1-1.6-3.8-2.2-1.9-2-2.4-0.7-2.7-0.3-2.6-0.8-4.5-2.3-2.3-0.9-7-1.2-1.4-0.5-4.1-2.5-2.9-0.8-5.9-0.7-2.8-0.6-4-1.4-5.4-0.6-4.2-1-2.4-0.4-11.8 1.1-14.6-1.2-2.8 0.3-16.8 5.7-4.3 2.5-2.3 2.2-2.8 1.8-2 0.9-0.7-0.2 0.1-3.5 1-3.4 1.5-2.4 1-2.6 1.3-12.4-0.4-5.5-4-7.1 2.1-5.4 0.7-2.9 12-1.9 11.7-3.1 10.7-5.4 3.7-4 2.9-4.8 3.6-10 3.9-17-0.3-8.3 0.2-5.2 1.9-9.1 1.5-2.7 1-0.3 1-0.7 0.3-1.6-0.2-1.7 2.3-1.1 1.2 2.3 2 1 2.7-0.2 2 1.7 2.8 0.2 2.8 1.2 2.9-1.3 3.2-5.9 5.1-0.8 2.7 2.5 0.8 1.9-0.1 2.2 2.7 2.1 3.3 2 0.9 9.9 2.1 8.1 6.6-3.6 4.8-6.8 2.2-2.1 2.7 1.1 7.5 2 3.4 4.4 1.6 1.6 1.1 1.9 2 2 3.3-0.4 3.5-3.6 2.7-4.7 2.1-5 3.1-3.6z" name="Nassarawa"/><path id="NGA2868" d="M661.3 118.8l-11 7.4-4.4-1.1-2.6-1.7-6.2 1.1-2.6 1-1.9 1.8-1.2 3.7-0.8 3.8-6 16.9-0.5 2.8 0.7 3.5-1.3 2.9-25.4 9.7-2.7 1.8-2.8 1.3-7 0.6-4.5 4-1.7 6.3 3.5 2.4 5.1-1.4 3-0.4 2.8 0.7 1.3 2.8 1.3 6.1 0.1 2.9-2.8 5.2-0.3 2.8 1.6 2.3 2.7 0 1.5-0.5 3.4 6.1 8 10.7 6.1 2.4 13.2 2.5 7.1 0.3 6 2-0.4 2.8-2 2.3-2.8 1.8-9.2 3.6-1.8 5.7 1 3.1-2.3 1.4-3.2-1.2-2.9-1.5-13.1 1-4.8-2-1.9-4.7 0.7-5.4 0-5.5-1.9-5.1-3.6-3.4-4.8 1.2-10.7 0.8-4.2-1.5-3.3-4.2-5.2 0.8-5.3-0.3-5.2-2.2-4.9-1.4-5.1-0.1 0.2-1.1-0.1-2.3 0.1-1.1 0.8-2.6 1.3-2.3 7.4-6.7 0.7-1.9-1.8-1.2-1.1-0.3-1.9-1.2-2.3-2.5-1.2-1.8-1.9-4.8-0.9-0.7-2.3-0.3-3.6 0.3-1.3-1.2 1.1-5.2 3-4.4 0.8-2 0.3-2.1 1-2.6 0.2-2.9-1.2-5.1-0.9-2.5-3.9-0.4-2.9 2-5.2 0-0.1-2.2-0.6-2-0.6-0.3-3.5 0.5-1.9 0.7-1.7-0.9-1.1-1.9 0.7-1.3 0.8-1.2 0.5-1.4-0.1-7.9-3.5-4.3-5.2-0.6-4.7-1.6-0.7-2.6 0.1-2.9-1-2.4-2.1-1.4-2.2-1.2-2-1.5-0.7-3 0.1-3.3-0.4-2.2-2-0.9-5.4-1.4-4.9-0.7-4.9 0.9-4.2 2.2-2.5 3.8-1.4 4.2-1 1.6-1.5-0.9-0.3-1.2 0-1.2-0.6-1.5-4.2-7.5-1-2.6-1.8-1.9-6.6-0.2-4.4-2.7-0.1-5.5 0.7-5.7 1.1-2.2 8.9-1.4 6-0.1 5.4 0.7 12.8-0.6 1.6 1.5 1.5 4.4 2.2 3.9 2 1.2 2 0.8 1.9-0.1 2.7-1.5 1 1.3 1.2 1.1 3.3 0.3 4.5-1 4-2.2 3.7-2.9 0.9-1.5 0.6-1.6 0.8-1.2 1-0.9 1.4-0.7 0.5-2.1 24.3 2.9 3.1 0 4.4-1.3 1.5-0.1 17.7 2.1 1.7-0.1 1.5-0.9 1.6-1.5 2.2 0.6 7.9 2.7 7.3-3.2 1.3-2.1 0.9-2.3 1.5-1.1 5.8-2.5 4-1 7.9-3.2 3.7-1 3.5 1.1 2.1 3.3 2.2 8.5 0.8 2.2 3.6 0.5 5.5-1.6 2.7 0.3 3 1.4 3.1 0.7 2.8-0.1 2.3 1.7 2.6 5.5 1.5 12.1 1.8 5.5z" name="Jigawa"/><path id="NGA2869" d="M546.1 217.5l-6.3 2.6-1.5 0.3-2.7-1.5-5.6 2.6-8.5 8.9-3.2 4.9-2.3 2.4-3 1.4-4.9 0.3-2.6 5.3-0.5 6.4 0.3 7.1 2.3 6.5 3.8 4.5 0.6 5.8-2.3 5.6-3.8 4.2-1.8 0.4-3.4-0.9-1.6-0.8-3.7-4.4-6.7-0.8-4.5-3.9 1.7-2.3 3.5-0.9 1.2-3.2-1.3-10.1 1.6-6.5-1.6-11.8-8.5-9.1-6.3-1.7-5.8-2.2-2.1-2.8-2.7-2.2-5.8-2.1-2.7-1.8-1.7-2.8 0.4-3 1.5-2.8 0.1-3.2-2.9-1.4-11.7 3.8-9.8 7.3-5.7 0.5-5.7-4.9-1.3-4.3 0.6-4.1 1.3-4.1 2.6-3.1 3.9-1 4.6-2.4 3.8-0.9-0.3-3.3-2.1-5.3-0.8-1.1-0.3-1.3 0.5-1.6 0.1-1.6-0.4-2.7-1.8-5.5 0.5-17.8-0.8-8.3 1-3.8 6.4-4.5 14.6-5.5 3-2.9 2.8-8.2 2-3.6 3.8-1.2 4.1 0 4.2 7.5 0.6 1.5 0 1.2 0.3 1.2 1.5 0.9 1-1.6 1.4-4.2 2.5-3.8 4.2-2.2 4.9-0.9 4.9 0.7 5.4 1.4 2 0.9 0.4 2.2-0.1 3.3 0.7 3 2 1.5 2.2 1.2 2.1 1.4 1 2.4-0.1 2.9 0.7 2.6 4.7 1.6 5.2 0.6 3.5 4.3 0.1 7.9-0.5 1.4-0.8 1.2-0.7 1.3 1.1 1.9 1.7 0.9 1.9-0.7 3.5-0.5 0.6 0.3 0.6 2 0.1 2.2 5.2 0 2.9-2 3.9 0.4 0.9 2.5 1.2 5.1-0.2 2.9-1 2.6-0.3 2.1-0.8 2-3 4.4-1.1 5.2 1.3 1.2 3.6-0.3 2.3 0.3 0.9 0.7 1.9 4.8 1.2 1.8 2.3 2.5 1.9 1.2 1.1 0.3 1.8 1.2-0.7 1.9-7.4 6.7-1.3 2.3-0.8 2.6-0.1 1.1 0.1 2.3-0.2 1.1z" name="Kano"/><path id="NGA2870" d="M525.5 89.7l-0.5 2.1-1.4 0.7-1 0.9-0.8 1.2-0.6 1.6-0.9 1.5-3.7 2.9-4 2.2-4.5 1-3.3-0.3-1.2-1.1-1-1.3-2.7 1.5-1.9 0.1-2-0.8-2-1.2-2.2-3.9-1.5-4.4-1.6-1.5-12.8 0.6-5.4-0.7-6 0.1-8.9 1.4-1.1 2.2-0.7 5.7 0.1 5.5 4.4 2.7 6.6 0.2 1.8 1.9 1 2.6-4.1 0-3.8 1.2-2 3.6-2.8 8.2-3 2.9-14.6 5.5-6.4 4.5-1 3.8 0.8 8.3-0.5 17.8 1.8 5.5 0.4 2.7-0.1 1.6-0.5 1.6 0.3 1.3 0.8 1.1 2.1 5.3 0.3 3.3-3.8 0.9-4.6 2.4-3.9 1-2.6 3.1-1.3 4.1-0.6 4.1 1.3 4.3 5.7 4.9-2.9 4.4-6.7 2.8-2.4-1.1-1.6-2.2-2.9-2.1-3.2-1.4-6.1-1.2-5.2 3.1-1.4 2.7-0.4 3-2.3 1.3-3-1.1-6.3-0.1-1.4 4.6 1.4 2.1 0.1 2.5-2 2.2-2.8 1.5-2.7-0.4-4.4-4.5-2.9-1.8-6.1-1.6-0.1-2.4 2.3-2.5 1.3-1 0.3-1.6-1-2-1.8-1.3-4.4-0.1-2-0.5-3.8-1.9 1.3-3.8 0.8-3.9-0.3-3 0.5-2.9-2.8-5.2 3.1-15.2 4.8-2.3 6.2 0 1.7 1.2 1.4-0.7 3.5-2.7 2-2 0.4-2.8 1.5-1.4 2.6 0.7 2.5-1-0.9-5-4.6-3.8-2.8-1.3-1.7-2.1 1.4-2.6 1.8-5 0.5-2.2-0.5-2.6-0.7-2.4-0.5-4.4-1.2-4.3-2.3-4.5 0.4-5.1-1.8-4.3-2.6-35.2 1.4-8.9 2.2-1 4-3.5 5-6 1.9-0.3 8.6 1.6 3 0 2.6-0.9 30.3-18.3 2.8-1.3 2.9-0.3 21.1 3 2.2 0.9 1 0.8 2 1.8 2.2 1.5 2.9 2.2 1.2 0.6 2.4 0.6 1.2 0.6 1.1 1 2.1 2.5 8.3 7.6 1.8 0.7 2.2-1 3-0.2 2.3 0.5 2 0.9 3.6 2.8 1.6 1.8 2.4 4 1.5 1.7 3 1.8 21.9 6.5 2.9 0.3z" name="Katsina"/><path id="NGA2871" d="M340.6 61.4l-4.2 3.3-6.5 3.8-8.1 0-8.1-2-1.4-1.3-1.3-1.6-3-0.9-1.8-0.3-3.9 0-1.2 1.1-0.4 2.1-0.1 2.3-1 3.5-2 0.6-3.3-1.3-6 0.8-5.3 2.9-0.9 2.4 1.4 14.6-2.4 4.7-3 1.3-3.1 0.9-18.8 1.8-4.2 3.3-3.1 5.1-4.3 5.5-4 2.7-0.5 5.6 1.7 6.3 0.3 6.6-4.1 4.5-25.4 1-12.3-2-3 10.2-0.7 39.9-1.6 1-1.8 0.2-0.9-1.3-1.3-0.8-1.9 0.6-1.3-0.7-1.8-0.4-1.7 0.4-15.8 7.2-2.9 3.6-3.7 2.3-3.7-1.3-2.7-3 0.7-8.1 3.7-8 2.8-13.3-0.6-32.7 3-5.3 6-1.5 5.7 1.8 3.7-1.9 0.3-6.4-2.5-13.7 0.4-3.3 0.8-3.1 0.7-6.2-1.9-5.3-2.8-4.8 0.5-3.5 0.9-3.2 0.5-1.2 0.4-1.3 0-1.6 0.2-1.6 1.3-2.5 0.3-2.7-1.5-1.8-2.2 0.7-1.5 2.1-1.3 2.2-2.6 1.6-3.1-0.3-3-1.4-2.8-2-2.9-1-3-0.8-5.6-2.1-5.2-3.1-2.5-2.4-2.6-2.1-3 0.7-2.9 1.4-5.4-0.9-6.3 0.2-0.7 0.1 0.3-1.9 0.1-20.5 5.4-0.2 2.5-0.5 2.4-1.1 13-12.6 3.9-2.8 4.5-1.8 26.5-6.5 2.7-0.3 1.9 0.9 1.8 1.8 1.9 0.8 4.9 0.3 8.4-1.5 11.9 0.5 2.9-0.5 0.9-0.4 2.6-1.9 1.1-1.4 1.4-3.1 1-1.3 2.3-1.2 12.3-2.1 2.7 0.6 47.1 18.8 1.8 1.1 0.9-0.2 4.8-2.7 1.6-0.4 6 1.4 5.5 3.2 11.7 11.1 13.6 15 6.8 12.5z" name="Sokoto"/><path id="NGA2872" d="M366.3 76.8l-1.4 8.9 2.6 35.2 1.8 4.3-0.4 5.1 2.3 4.5 1.2 4.3 0.5 4.4 0.7 2.4 0.5 2.6-0.5 2.2-1.8 5-1.4 2.6 1.7 2.1 2.8 1.3 4.6 3.8 0.9 5-2.5 1-2.6-0.7-1.5 1.4-0.4 2.8-2 2-3.5 2.7-1.4 0.7-1.7-1.2-6.2 0-4.8 2.3-3.1 15.2 2.8 5.2-0.5 2.9 0.3 3-0.8 3.9-1.3 3.8-1.4 2.5-1.6 1.7-5.9 3.7-1.7 2.1-0.9 2.6-1.6 7.6-0.8 1.9-1.1 1.4-1.3 1.1-1.4 0.9-8.5 3.2-2.3 0-5.4 1.6-1.9 0-1.8-0.4-5.5-2-1.8-0.2-1.6 0.6-1 1.3-1.5 3.1-1 1.3-0.9 0.6-2 0.7-0.8 0.6-0.7 1.1-0.1 2.2-0.4 1.1-1.2 1.1-3.8 1.3-1.3-5.6-6.4-10.8-3.5-4.7-0.7-12.9-6.4-10.2-3.3-1.3-1.6-2.6 2.1-6.4 0.4-5.8-3.9-3.8-3.1-1.1-6.2-1.1-1.4 0.4-1.3 0.7-12.6 0.9-5-1.1-7.2-3.1-1.2-2.5-2-1.6-4.7 0.7-2-0.1-1.8-0.9-1.8 0.1-1.4 1.5-0.7 2-1.5 0.9-1.9 0.1-4.4 1.1-1.7-0.4-1.4-1.1-3.4-1.3-3.4 0.6 0.7-39.9 3-10.2 12.3 2 25.4-1 4.1-4.5-0.3-6.6-1.7-6.3 0.5-5.6 4-2.7 4.3-5.5 3.1-5.1 4.2-3.3 18.8-1.8 3.1-0.9 3-1.3 2.4-4.7-1.4-14.6 0.9-2.4 5.3-2.9 6-0.8 3.3 1.3 2-0.6 1-3.5 0.1-2.3 0.4-2.1 1.2-1.1 3.9 0 1.8 0.3 3 0.9 1.3 1.6 1.4 1.3 8.1 2 8.1 0 6.5-3.8 4.2-3.3 2 3.8 4.9 5.7 3.1 2.8 2.7 2.1 2.5 0.9 2.8 0.3 6.2 0 1.5-0.2z" name="Zamfara"/><path id="NGA2873" d="M809.1 69.6l-2 16.5 1.5 5.5 3.7 4.1 4.5 3.3 0.7 5.3-2.1 5.2-3.7 5.1-9.1 8.7 1.7 12.8-3.9 28.6 2 8.5-0.4 3.8-5 9.9-0.5 3.4 2.2 0.7 2.8-0.4 3.4 1.1 2.4 2.8 1.5 3 0.4 3.1-8.4 10.5-3.4 6.2-2.3 2.4-1.8 2.7-0.4 7.2 0.4 7.2-2.5 5.8-5.2 3.9-19.6 6.9-4.7 5.2-1.2 6.8 0.6 7.1-0.9 3-2 2.5-2.5 2.1-3.3 0.9-3.1 0.3-5.8-0.6-0.8-2.5-0.5-6.1 1-19.4-0.5-2.9-1.8-2.3-8.7-8.8-4-5.5-4.6-4.9-5.3-4.2-11.4-5.6-11.6 3.1-4-0.7-2.2-2.8 2.9-13.2-0.5-7.2-10-24.8-2.5-13.6-0.1-5.9-0.5-3.7-1.7-3.3-1.7-2.7-0.4-3-0.1-3.4-1.3-6.7-1.1-3.2-4.8-4.7-5.6-3.9-1.8-5.5-1.5-12.1-2.6-5.5-2.3-1.7-2.8 0.1-3.1-0.7-3-1.4-2.7-0.3-5.5 1.6-3.6-0.5-0.8-2.2-2.2-8.5-2.1-3.3-3.5-1.1-3.7 1-7.9 3.2-4 1-5.8 2.5-1.5 1.1-0.9 2.3-1.3 2.1-7.3 3.2-7.9-2.7-2.2-0.6 14.2-16.9 2.8-2.7 1.6-1.1 1.7-0.3 1-1.5 0.3-2.1 0.4-0.9 1.4-1.4 15.8-8.9 3.5-1.5 42.7-9.2 8-0.7 15.1 1.8 40.5-0.2 25.2 6.4 9.2 3.8 11.5 7.1 3.9 3 1.6 0.9 4.9 1.2 3.9-0.5 1.8-1.2 1.4-0.3 4.2 1.5 0.9 0.5 0.5 1.4 0.7 0.1 1.2-1 0.8-0.1 0.8 0.4 1.2 1.2 0.8-0.5 1.4 0.4 2.9 0.1z" name="Yobe"/><path id="NGA2879" d="M196.6 188.8l3.4-0.6 3.4 1.3 1.4 1.1 1.7 0.4 4.4-1.1 1.9-0.1 1.5-0.9 0.7-2 1.4-1.5 1.8-0.1 1.8 0.9 2 0.1 4.7-0.7 2 1.6 1.2 2.5 7.2 3.1 5 1.1 12.6-0.9 1.3-0.7 1.4-0.4 6.2 1.1 3.1 1.1 3.9 3.8-0.4 5.8-2.1 6.4 1.6 2.6 3.3 1.3 6.4 10.2 0.7 12.9-2.6-1.6-2.9 0.1-1.2 1-2.1 2.4-0.9 1.3-2.1 1.7-2.9 0.3-2.9 0.8-14.4 6.1-5.5 1-8.3 0-2.2-0.8-1.1-3-0.1-3.3 0.5-6.5-1.3-2.8-2.7-1.7-3-5.4-1.1-6.4-4.9-3-6.1-0.1-24.6 5-11.4 5.1-1.3 5.4 5.2 4 6 2.5 6.4 1 1.4 0 1.1 0.7 0.7 1.5 1.1 0.6 2.3 0.7 1 2.5 0.8 3.4 0.2 3.4-4 5.1 3.4 4.3 1.8 5.6-2.2 1.7-5.9 1.7-5.6 2.7-5.8-0.8-2.6 1-1.4 5.6 0.4 6.4-0.4 2.9 0.5 2.8 3.9 5.2 2.6 5.7-2.1 5.6-2.4 1.7-2.8 1-9.7 2-2.9 1-0.9 3 0 3.4-1.1 2.2-5.6-0.3-2-1.8 1.2-6.2 0.5-6.2-1.7-1.9-2.2-1.7-1.3-2.9-0.3-3.2 0.5-6.3 3.2-5.4 9.6-5.5 0.2-1.5 2.1-2.2 0.6-1.1 0.2-1.5-0.1-3.2 2.8-15.1-0.1-2.1-5.4-1.6-10.1-6.7-8.4-2.2-8.6 1.2-22.8 0.6-4.4-0.5-9.3-4.3-7.4-4.6-7.6-0.9-0.6 0.6-1.6 0.1-2-2-14.9-21.1-1.2-2.3-0.2-2 2.2-5.8 1-3.9 5.8-9.9 1.8-1.9 4.3-2.6 1-1 0.6-1.8-0.4-1.7-1-1.6-2-2.1-0.6-0.5-0.8-1.7-0.5-4.8 0.4-1.4 0.9-1.3 1.5-1.4 1.4-2.9-0.4-2.9-2.1-6.2 0.1-3.7 2.2-11.2-0.8-21.2 0.3-0.9 18.2-13.8 5.4-5.1 13.3-21 2.6-18.4 0.7-0.1 6.3-0.2 5.4 0.9 2.9-1.4 3-0.7 2.6 2.1 2.5 2.4 5.2 3.1 5.6 2.1 3 0.8 2.9 1 2.8 2 3 1.4 3.1 0.3 2.6-1.6 1.3-2.2 1.5-2.1 2.2-0.7 1.5 1.8-0.3 2.7-1.3 2.5-0.2 1.6 0 1.6-0.4 1.3-0.5 1.2-0.9 3.2-0.5 3.5 2.8 4.8 1.9 5.3-0.7 6.2-0.8 3.1-0.4 3.3 2.5 13.7-0.3 6.4-3.7 1.9-5.7-1.8-6 1.5-3 5.3 0.6 32.7-2.8 13.3-3.7 8-0.7 8.1 2.7 3 3.7 1.3 3.7-2.3 2.9-3.6 15.8-7.2 1.7-0.4 1.8 0.4 1.3 0.7 1.9-0.6 1.3 0.8 0.9 1.3 1.8-0.2 1.6-1z" name="Kebbi"/><path id="NGA2881" d="M768.9 545.7l-1.1-4.3-2.1-4.5-1-5.5 0-5.7-4-9.6-8.1-7.7-2-2.5-3-1.3-2.6 1.2-1.7 2.5-1.8 2.3-2.2 1.9-2.7-0.3-2.3-2.3-3.3-6-3.6-9 0.7-2.6 4.6-5.4 5.4-4.9 21.5-25.9 5.6-4.6 0.8-2.7-0.4-3.1 0.6-5.8 8.3-17.4-0.5-5.9-3.4-4.3-5.3-2.5-2.9-4.9 0-3 0.4-2.9-0.8-2.6-1.6-2.5-2.8-6.1-4.8-4.3-2.8-0.9-2.8-0.5-2-1.9-7.7-14.5 7.6-1.2 7.1-3.2 15.4-9.3 3.1-2.5 1.3-3.5-0.5-11.2 0.9-7.3 13.4 0.7 10.6-7.5 8.6-11.2 4.8-4.1 6-1.3 6.7-0.7 6-2.7 2.3-2.6 1.5-3 2.1-1.6 3.1-0.2 4.9-4.4 4.5-5.3 6.8-1.6 7.2 1 5.6 2.5 4.6 4.1 4.9 3.2 5.7 1.2 4.2-2.3 2.9-11.3 4.6-11.4 1.1-5.9 0-5.8 0.7-4.8 2.8-0.4 1.2 0.2 0.9 0.8 2.7 1 2.7 0.3 12.1-2.6 4.9-0.3-0.5 1-14.8 21.3-2.3 4.9-3.1 10.6-2.8 15.9-1.9 5.3 0 1.1 0.5 1.7 0.2 1-0.2 1.1-1.3 2.9-1 1.2-1.8 1.4-1.9 1.2-1.6 0.6-6.5 0.8-2.8 1-1.5 2.9 0.1 1.7 1 2.8 0.3 1.6-0.4 2-1.9 3.1-0.6 1.7 0.1 1.9 0.8 1.4 2.5 2.5 0.9 1.9-0.2 1.3-0.8 1.4-0.8 2.1-1.1 5.7-0.4 5.4-2.3 6-5.5 2.2-6.5 1-5.8 2.5-1.1 0.9-2.4 3.1-1.6 1.4-4.9 2.4-0.5 0.4-0.6 1.5 0.4 0.3 2.3 0.3 0.9 1.8 0.6 2.5-0.1 3.3-0.3 1.6-0.5 1.4-3.8 7-1.7 4-0.1 3.4 0.6 3.1-1.9 15.8-0.9 3.7-1.8 2.4-1.1 0.5-3.3-0.2-0.9 0.4-0.6 1-0.8 2.4-1.2 2.7-1.5 1.6-8.5 4.6-1.3 0.3-1.2-0.3-2.7-1.2-1-0.3-1.6 0.2-2 1.2-1.3 0.6-1.1 0.1-1.2-0.2-2.3-0.8 0.7 1.3 1.9 4.7 0.3 1.2 0 2.4-0.7 0.7-2.5 1.8-1.8 2.8-1 0.7-1.8 0.3-3.2-0.6-1.8 0.8-1.9 2.7-0.6 3.7 0.2 3.8 1.3 6.8-0.1 1.7-0.6 1.8-3.4 4.8-0.5 2.1 0 3.2 0.5 3.3 0.5 2 0.3 1.4-0.5 1.2-3.1 3.3-8.3 11.6-3 5.4-0.6 1.8-0.2 1.8 0.1 1.8 1.2 4.9-0.3 1.7-1.1 1-1.3 0.9-2.2 3.3-5.2 5.1z" name="Adamawa"/><path id="NGA3470" d="M413.1 389.4l0.2 1.7-0.3 1.6-1 0.7-1 0.3-1.5 2.7-1.9 9.1-0.2 5.2 0.3 8.3-3.9 17-3.6 10-2.9 4.8-3.7 4-10.7 5.4-11.7 3.1-12 1.9-3.7 0.6-3.1-0.4-5.1 0.2-3.8-0.4-2-3.6-0.5-1.5-0.8-60.1 0.4-2.4 2-0.9 15.4-0.6 5 1.5 7.7 7.6 4 2.2 0.5-0.1 11.7-16.7 7.9-0.9 2.3 0.1 2.3 0.3 2.1 0.9 1.8-1.3 2.6-3.7 3 1.1 1.5 2.9 2.7-0.6z" name="Federal Capital Territory"/><circle id="0" cx="395.2" cy="167.5"/><circle id="1" cx="507.7" cy="544.9"/><circle id="2" cx="725.7" cy="410.7"/></svg>